{
	"asset": {
		"generator": "Unity 5.6.0f3",
		"extras": {
			"exporterVersion" : "2.0.6"
		},
		"version": "2.0"
	},
	"accessors": [
		{
			"bufferView": 1,
			"byteOffset": 0,
			"componentType": 5126,
			"count": 138,
			"max": [ 0.2283889, 0.3170721, 0.007510801 ],
			"min": [ -0.3105981, -0.3509198, -0.2071579 ],
			"type": "VEC3"
		},
		{
			"bufferView": 1,
			"byteOffset": 1656,
			"componentType": 5126,
			"count": 138,
			"max": [ 0.9993833, 0.9940099, 0.9995541 ],
			"min": [ -0.9993833, -0.9940099, -0.9995541 ],
			"type": "VEC3"
		},
		{
			"bufferView": 0,
			"byteOffset": 0,
			"componentType": 5123,
			"count": 240,
			"max": [ 137 ],
			"min": [ 0 ],
			"type": "SCALAR"
		}
	],
	"buffers": [
		{
			"byteLength": 3792,
			"uri": "pebbles.bin"
		}
	],
	"bufferViews": [
		{
			"buffer": 0,
			"byteLength": 480,
			"byteOffset": 0,
			"byteStride": 0,
			"target": 34963
		},
		{
			"buffer": 0,
			"byteLength": 3312,
			"byteOffset": 480,
			"byteStride": 12,
			"target": 34962
		}
	],
	"materials": [
		{
			"pbrMetallicRoughness": {
				"baseColorFactor": [0.4296836, 0.4338235, 0.3859753, 1],
				"roughnessFactor": 0,
				"metallicFactor": 0
			},
			"doubleSided": false,
			"emissiveFactor": [0, 0, 0],
			"name": "Material"
		}
	],
	"meshes": [
		{
			"name": "mesh_stones_37652pebbles",
			"primitives": [
				{
					"attributes": {
						"POSITION": 0,
						"NORMAL": 1
					},
					"indices": 2,
					"material": 0,
					"mode": 4
				}
			]
		}
	],
	"nodes": [
		{
			"name": "UnityGlTF_correctionMatrix",
			"children": [
				1
			],
			"matrix": [-1, 0, -8.742278E-08, 0, 0, 1, 0, 0, 8.742278E-08, 0, -1, 0, 0, 0, 0, 1]
		},
		{
			"name": "node_pebbles_-1971934",
			"mesh": 0,
			"matrix": [4.786449, 3.447101E-07, -3.245948, 0, 3.245947, -1.37884E-06, 4.786449, 0, -3.447101E-07, -5.783275, -1.37884E-06, 0, 275.79, 29.14, 6.09, 1]
		}
	],
	"scenes": [
		{
			"name":"defaultScene",
			"nodes": [
				0
			]
		}
	],
	"scene": 0
}