# Plante extraite de « Stylized Nature Pack Vol.1 »
v -14.6760798 3.744976043 -3.943362
v -12.8419504 0.799827992 -3.78722692
v -14.6760798 0.799827992 -3.78722596
v -12.8419504 3.744976043 -3.94336295
v -10.86483 2.699826002 -3.64811397
v -11.7412596 -0.20714299 -1.961779
v -12.1633797 0.052994001 -3.72762299
v -10.4427099 2.439690113 -1.88226998
v -10.0961599 2.302304029 -2.96862793
v -12.2694998 0.037599999 -1.48199797
v -11.3947096 -0.34452799 -3.048136
v -10.9709501 2.684432983 -1.40249097
v -13.4014101 2.438184976 -6.0839572
v -12.3652 0.297183990 -3.55320406
v -13.5928602 -0.21727601 -4.81503916
v -12.1737499 2.952644109 -4.8221221
v -11.6494598 3.100516080 -3.05853009
v -11.3757 -0.31854999 -3.60384989
v -12.9697504 0.464713990 -3.14607811
v -10.0554104 2.317250967 -3.51630306
v -16.8334904 2.357156038 -1.10305405
v -14.0991697 0.401380002 -1.97526205
v -15.7644501 -0.32231799 -1.71612597
v -15.16821 3.080852031 -1.36219001
v -13.3541603 2.832148075 -3.52152395
v -10.7954597 1.071522951 -1.96730399
v -12.1244602 0.223407998 -2.9045949
v -12.0251598 3.680263996 -2.58423305
v -12.3620195 2.058765888 -6.43332815
v -12.5673704 0.528944015 -3.3220861
v -12.5565701 -0.440256 -4.87919617
v -12.3728304 3.027966022 -4.87621784
v -13.7264795 2.131098985 -6.48781919
v -13.9318304 0.601278007 -3.37657809
v -13.92103 -0.36792299 -4.93368816
v -13.7372799 3.100300073 -4.93070984
v -11.5319901 2.681097030 -5.23230791
v -11.9113398 -0.123266 -3.21885705
v -12.8713102 0.095091000 -4.76638412
v -10.5720196 2.462739944 -3.68478107
v -12.0208197 2.109409093 -3.32844496
v -14.3297796 -0.037749 -3.75227499
v -14.3297796 2.109409093 -3.328444
v -12.0208197 -0.03775 -3.75227499
v -12.98283 1.719622016 -2.58390808
v -13.6514997 0.186280995 -4.86522388
v -13.6514997 2.095541000 -4.48835516
v -12.9828396 -0.189639 -2.96077704
v -12.0839396 1.701315999 -2.97857904
v -13.6367903 0.115287996 -4.4968462
v -13.6367903 1.930289030 -4.138587
v -12.0839396 -0.113685 -3.33683801
v -12.8583698 1.993337035 -4.45800304
v -14.7959299 0.132807001 -4.58559799
v -14.7959204 1.947808980 -4.22734499
v -12.8583698 0.178334996 -4.816257
v -13.7264605 2.348016023 -4.47784519
v -14.9484797 0.238309994 -3.34303689
v -14.9484797 2.053313016 -2.98478794
v -13.7264605 0.533012986 -4.83609486
v -14.6786404 2.066827058 -3.29728389
v -13.5945196 -0.056655 -2.053303
v -13.4632902 1.771098971 -1.79899299
v -14.8098698 0.239072993 -3.55159402
v -14.0754499 2.564886093 -3.94109011
v -13.4411697 0.631848990 -2.66107702
v -12.8673496 2.180473089 -2.74278998
v -14.6492701 1.016262054 -3.8593781
v -13.9849796 1.901412010 -3.0400281
v -12.10853 -0.024952 -3.03765702
v -12.0563202 1.802253961 -3.32256508
v -14.0371904 0.074206002 -2.75512004
v -11.7841702 2.666091918 -4.4961648
v -14.21591 -0.053753 -2.78463793
v -13.8327198 2.666091918 -2.40860701
v -12.1673603 -0.053753 -4.8721962
v -11.9645395 2.172342062 -2.96583009
v -14.6203604 0.230030998 -4.38530684
v -14.2796297 2.648525953 -4.0509429
v -12.3052797 -0.246154 -3.30019403
v -11.5238504 2.149152994 -4.12869501
v -14.2742596 0.140101999 -4.07177496
v -13.9503498 2.439197063 -3.75392199
v -11.8477602 -0.149942 -4.44654799
v -13.5485096 2.519061088 -4.74109316
v -15.3829098 0.162294000 -3.1025269
v -15.059 2.461390018 -2.78467894
v -13.8724098 0.219964996 -5.05894184
v -14.3366404 2.968338966 -3.97384
v -14.3948402 0.295935988 -1.86217499
v -14.07094 2.595033884 -1.54433
v -14.6605396 0.669241011 -4.29168701
v -14.1140699 2.612152099 -2.06555295
v -12.0275202 -0.077701 -1.94203305
v -11.68116 2.237549066 -1.83505094
v -14.4604197 0.296903997 -2.17253494
v -14.1609802 3.243053913 -3.1820991
v -12.4409599 0.794439971 -2.61990595
v -12.0057402 2.756110906 -3.21119905
v -14.5962 1.281383037 -2.59080601
v -13.2660503 2.402616977 -2.46445203
v -11.5990801 -0.037542 -4.1588788
v -11.8103504 2.277013063 -4.45885277
v -13.05478 0.088062003 -2.16447902
v -12.8424101 2.666091918 -3.41777992
v -15.2741499 -0.053754 -1.70625305
v -14.8909597 2.666090965 -1.33022201
v -13.2256002 -0.053754 -3.79381204
v -13.0227804 2.172341108 -1.88744497
v -15.6786003 0.230030998 -3.30692196
v -15.3378601 2.648524999 -2.97255802
v -13.3635101 -0.246154 -2.22180891
v -12.5820799 2.149152994 -3.0503099
v -15.33249 0.140101999 -2.99339008
v -15.0085802 2.439197063 -2.67553711
v -12.9059896 -0.149942 -3.36816406
v -14.60674 2.519059896 -3.66270804
v -16.4411392 0.162293002 -2.02414298
v -16.1172409 2.461390018 -1.70629394
v -14.9306402 0.219963997 -3.98055696
v -15.3948698 2.968338012 -2.89545488
v -15.4530802 0.295935988 -0.78379101
v -15.12918 2.595033884 -0.46594501
v -15.71877 0.669241011 -3.2133019
v -15.1723003 2.612152099 -0.98716801
v -13.0857496 -0.077701 -0.86364901
v -12.7393999 2.237548112 -0.756666
v -15.5186501 0.296903014 -1.09415102
v -15.2192097 3.243052959 -2.10371399
v -13.4991903 0.794439017 -1.54152203
v -13.0639696 2.756109952 -2.13281488
v -15.6544399 1.281381964 -1.51242197
v -14.3242903 2.402616977 -1.38606703
v -12.6573095 -0.037542 -3.08049393
v -12.8685904 2.277013063 -3.38046789
v -14.1130104 0.088062003 -1.08609295
v -15.2393703 2.666091918 -5.81720877
v -14.7776499 -0.053753 -2.87960792
v -14.2710505 2.666091918 -3.05735207
v -15.7459698 -0.053753 -5.63946581
v -13.9460001 2.172342062 -4.97957087
v -16.3923893 0.230030998 -3.2236011
v -15.9419298 2.648525953 -3.38165307
v -14.3964596 -0.246154 -4.82152081
v -14.7947102 2.149152994 -5.88849497
v -15.95825 0.140102997 -3.39567304
v -15.5300303 2.439197063 -3.54591894
v -15.22293 -0.149942 -5.73824883
v -16.2382698 2.519061088 -4.34239578
v -15.5782204 0.162294000 -1.97295797
v -15.1499996 2.461390018 -2.12319994
v -16.6664791 0.219964996 -4.19215298
v -15.8979301 2.968338966 -3.29645395
v -14.0290298 0.295935988 -2.31170511
v -13.6008196 2.595035076 -2.46194601
v -16.3261395 0.669242024 -3.14621401
v -14.0875101 2.612153053 -2.65343404
v -13.0552502 -0.077701 -4.47095394
v -12.8063097 2.237549066 -4.73446083
v -14.3364401 0.296903997 -2.38992691
v -15.1099997 3.243053913 -3.10441709
v -13.8460197 0.794439971 -4.39936399
v -14.18433 2.756110906 -5.05097103
v -14.7716799 1.281383037 -2.45281005
v -14.0709105 2.402616977 -3.59043503
v -14.8550196 -0.037542 -5.83432817
v -15.2174597 2.277014017 -5.77724409
v -13.7084799 0.088063001 -3.64751792
v -13.1611404 2.666091918 -3.64128494
v -12.69942 -0.053754 -0.70368397
v -12.1928196 2.666091918 -0.88142699
v -13.6677399 -0.053754 -3.46354198
v -11.8677702 2.172341108 -2.80364704
v -14.3141603 0.230030998 -1.04767704
v -13.8636999 2.648524999 -1.20572805
v -12.3182297 -0.246154 -2.64559603
v -12.7164803 2.149152994 -3.71256995
v -13.8800201 0.140101999 -1.21974802
v -13.4518003 2.439197063 -1.36999404
v -13.1447001 -0.149942 -3.56232405
v -14.1600399 2.519059896 -2.166471
v -13.4999905 0.162293002 0.202967003
v -13.0717697 2.461390018 0.052724000
v -14.5882502 0.219963997 -2.01622796
v -13.8197002 2.968338966 -1.12053001
v -11.9507999 0.295935988 -0.13578101
v -11.5225897 2.595033884 -0.28602001
v -14.2479095 0.669241011 -0.97028899
v -12.0092802 2.612152099 -0.47750899
v -10.9770203 -0.077701 -2.29502892
v -10.7280798 2.237548112 -2.55853701
v -12.2582102 0.296903014 -0.214002
v -13.0317698 3.243052959 -0.92849302
v -11.7677898 0.794439017 -2.22343898
v -12.1061001 2.756109952 -2.87504601
v -12.69345 1.281381964 -0.276885
v -11.9926796 2.402616977 -1.41451001
v -12.7767897 -0.037542 -3.65840292
v -13.1392298 2.277013063 -3.60131907
v -11.6302404 0.088062003 -1.47159302
v -11.0164099 2.419513940 -1.23213995
v -13.2069998 0.138881996 -2.49873495
v -12.9580803 2.454133033 -2.76223207
v -11.2653303 0.104263000 -0.96864301
v -13.9174805 3.523922920 -5.04845715
v -13.45576 0.804077029 -2.1108551
v -12.9491701 3.523922920 -2.28859901
v -14.4240799 0.804077029 -4.87071419
v -12.6241102 3.030172109 -4.21081781
v -15.0705099 1.087860941 -2.454849
v -14.6200399 3.506356000 -2.61290002
v -13.0745697 0.611676991 -4.05276823
v -13.4728298 3.006983995 -5.11974192
v -14.6363602 0.997932016 -2.62691998
v -14.2081404 3.297028064 -2.77716708
v -13.9010496 0.707888007 -4.96949577
v -14.9163799 3.376892089 -3.57364297
v -14.2563295 1.020125031 -1.20420504
v -13.8281202 3.319221019 -1.35444796
v -15.3445902 1.077795028 -3.42339993
v -14.5760403 3.826169967 -2.5277009
v -12.70714 1.153766989 -1.54295301
v -12.2789297 3.452863931 -1.69319201
v -15.0042496 1.527073025 -2.37746096
v -12.7656202 3.469984054 -1.88468099
v -11.7333603 0.780130028 -3.70220089
v -11.4844198 3.095379114 -3.96570897
v -13.0145502 1.154734015 -1.62117398
v -13.7881098 4.100883960 -2.33566499
v -12.5241299 1.652271032 -3.63061094
v -12.8624401 3.613940954 -4.28221798
v -13.4497995 2.139214038 -1.684057
v -12.7490196 3.260447979 -2.82168102
v -13.5331297 0.820289015 -5.06557512
v -13.8955698 3.134844064 -5.00849104
v -12.38659 0.945892989 -2.87876511
vt 0.552654027 0.945056974
vt 0.351442009 0.621509015
vt 0.552654027 0.621509015
vt 0.351442009 0.945056974
vt 0.552654027 0.945056974
vt 0.351442009 0.621509015
vt 0.552654027 0.621509015
vt 0.351442009 0.945056974
vt 0.552654027 0.945056974
vt 0.351442009 0.621509015
vt 0.552654027 0.621509015
vt 0.351442009 0.945056974
vt 0.552654027 0.945056974
vt 0.351442009 0.621509015
vt 0.552654027 0.621509015
vt 0.351442009 0.945056974
vt 0.552654027 0.945056974
vt 0.351442009 0.621509015
vt 0.552654027 0.621509015
vt 0.351442009 0.945056974
vt 0.552654027 0.945056974
vt 0.351442009 0.621509015
vt 0.552654027 0.621509015
vt 0.351442009 0.945056974
vt 0.552654027 0.945056974
vt 0.351442009 0.621509015
vt 0.552654027 0.621509015
vt 0.351442009 0.945056974
vt 0.552654027 0.945056974
vt 0.351442009 0.621509015
vt 0.552654027 0.621509015
vt 0.351442009 0.945056974
vt 0.552654027 0.945056974
vt 0.351442009 0.621509015
vt 0.552654027 0.621509015
vt 0.351442009 0.945056974
vt 0.552654027 0.945056974
vt 0.351442009 0.621509015
vt 0.552654027 0.621509015
vt 0.351442009 0.945056974
vt 0.016578 0.954837977
vt 0.332540988 0.655345976
vt 0.332540988 0.954837977
vt 0.016578 0.655345976
vt 0.016578 0.954837977
vt 0.332540988 0.655345976
vt 0.332540988 0.954837977
vt 0.016578 0.655345976
vt 0.016578 0.954837977
vt 0.332540988 0.655345976
vt 0.332540988 0.954837977
vt 0.016578 0.655345976
vt 0.016578 0.954837977
vt 0.332540988 0.655345976
vt 0.332540988 0.954837977
vt 0.016578 0.655345976
vt 0.016578 0.954837977
vt 0.332540988 0.655345976
vt 0.332540988 0.954837977
vt 0.016578 0.655345976
vt 0.016578 0.954837977
vt 0.332540988 0.655345976
vt 0.332540988 0.954837977
vt 0.016578 0.655345976
vt 0.016578 0.954837977
vt 0.332540988 0.655345976
vt 0.332540988 0.954837977
vt 0.016578 0.655345976
vt 0.016578 0.954837977
vt 0.332540988 0.655345976
vt 0.332540988 0.954837977
vt 0.016578 0.655345976
vt 0.016578 0.954837977
vt 0.332540988 0.655345976
vt 0.332540988 0.954837977
vt 0.016578 0.655345976
vt 0.016578 0.954837977
vt 0.332540988 0.655345976
vt 0.332540988 0.954837977
vt 0.016578 0.655345976
vt 0.016578 0.954837977
vt 0.332540988 0.655345976
vt 0.332540988 0.954837977
vt 0.016578 0.655345976
vt 0.016578 0.954837977
vt 0.332540988 0.655345976
vt 0.332540988 0.954837977
vt 0.016578 0.655345976
vt 0.016578 0.954837977
vt 0.332540988 0.655345976
vt 0.332540988 0.954837977
vt 0.016578 0.655345976
vt 0.016578 0.954837977
vt 0.332540988 0.655345976
vt 0.332540988 0.954837977
vt 0.016578 0.655345976
vt 0.016578 0.954837977
vt 0.332540988 0.655345976
vt 0.332540988 0.954837977
vt 0.016578 0.655345976
vt 0.016578 0.954837977
vt 0.332540988 0.655345976
vt 0.332540988 0.954837977
vt 0.016578 0.655345976
vt 0.016578 0.954837977
vt 0.332540988 0.655345976
vt 0.332540988 0.954837977
vt 0.016578 0.655345976
vt 0.016578 0.954837977
vt 0.332540988 0.655345976
vt 0.332540988 0.954837977
vt 0.016578 0.655345976
vt 0.016578 0.954837977
vt 0.332540988 0.655345976
vt 0.332540988 0.954837977
vt 0.016578 0.655345976
vt 0.016578 0.954837977
vt 0.332540988 0.655345976
vt 0.332540988 0.954837977
vt 0.016578 0.655345976
vt 0.016578 0.954837977
vt 0.332540988 0.655345976
vt 0.332540988 0.954837977
vt 0.016578 0.655345976
vt 0.016578 0.954837977
vt 0.332540988 0.655345976
vt 0.332540988 0.954837977
vt 0.016578 0.655345976
vt 0.016578 0.954837977
vt 0.332540988 0.655345976
vt 0.332540988 0.954837977
vt 0.016578 0.655345976
vt 0.016578 0.954837977
vt 0.332540988 0.655345976
vt 0.332540988 0.954837977
vt 0.016578 0.655345976
vt 0.016578 0.954837977
vt 0.332540988 0.655345976
vt 0.332540988 0.954837977
vt 0.016578 0.655345976
vt 0.016578 0.954837977
vt 0.332540988 0.655345976
vt 0.332540988 0.954837977
vt 0.016578 0.655345976
vt 0.016578 0.954837977
vt 0.332540988 0.655345976
vt 0.332540988 0.954837977
vt 0.016578 0.655345976
vt 0.016578 0.954837977
vt 0.332540988 0.655345976
vt 0.332540988 0.954837977
vt 0.016578 0.655345976
vt 0.016578 0.954837977
vt 0.332540988 0.655345976
vt 0.332540988 0.954837977
vt 0.016578 0.655345976
vt 0.016578 0.954837977
vt 0.332540988 0.655345976
vt 0.332540988 0.954837977
vt 0.016578 0.655345976
vt 0.016578 0.954837977
vt 0.332540988 0.655345976
vt 0.332540988 0.954837977
vt 0.016578 0.655345976
vt 0.016578 0.954837977
vt 0.332540988 0.655345976
vt 0.332540988 0.954837977
vt 0.016578 0.655345976
vt 0.016578 0.954837977
vt 0.332540988 0.655345976
vt 0.332540988 0.954837977
vt 0.016578 0.655345976
vt 0.016578 0.954837977
vt 0.332540988 0.655345976
vt 0.332540988 0.954837977
vt 0.016578 0.655345976
vt 0.016578 0.954837977
vt 0.332540988 0.655345976
vt 0.332540988 0.954837977
vt 0.016578 0.655345976
vt 0.016578 0.954837977
vt 0.332540988 0.655345976
vt 0.332540988 0.954837977
vt 0.016578 0.655345976
vt 0.016578 0.954837977
vt 0.332540988 0.655345976
vt 0.332540988 0.954837977
vt 0.016578 0.655345976
vt 0.016578 0.954837977
vt 0.332540988 0.655345976
vt 0.332540988 0.954837977
vt 0.016578 0.655345976
vt 0.016578 0.954837977
vt 0.332540988 0.655345976
vt 0.332540988 0.954837977
vt 0.016578 0.655345976
vt 0.016578 0.954837977
vt 0.332540988 0.655345976
vt 0.332540988 0.954837977
vt 0.016578 0.655345976
vt 0.016578 0.954837977
vt 0.332540988 0.655345976
vt 0.332540988 0.954837977
vt 0.016578 0.655345976
vt 0.016578 0.954837977
vt 0.332540988 0.655345976
vt 0.332540988 0.954837977
vt 0.016578 0.655345976
vt 0.016578 0.954837977
vt 0.332540988 0.655345976
vt 0.332540988 0.954837977
vt 0.016578 0.655345976
vt 0.016578 0.954837977
vt 0.332540988 0.655345976
vt 0.332540988 0.954837977
vt 0.016578 0.655345976
vt 0.016578 0.954837977
vt 0.332540988 0.655345976
vt 0.332540988 0.954837977
vt 0.016578 0.655345976
vt 0.016578 0.954837977
vt 0.332540988 0.655345976
vt 0.332540988 0.954837977
vt 0.016578 0.655345976
vt 0.016578 0.954837977
vt 0.332540988 0.655345976
vt 0.332540988 0.954837977
vt 0.016578 0.655345976
vt 0.016578 0.954837977
vt 0.332540988 0.655345976
vt 0.332540988 0.954837977
vt 0.016578 0.655345976
vt 0.016578 0.954837977
vt 0.332540988 0.655345976
vt 0.332540988 0.954837977
vt 0.016578 0.655345976
f 1/1 2/2 3/3
f 4/4 2/2 1/1
f 5/5 6/6 7/7
f 8/8 6/6 5/5
f 9/9 10/10 11/11
f 12/12 10/10 9/9
f 13/13 14/14 15/15
f 16/16 14/14 13/13
f 17/17 18/18 19/19
f 20/20 18/18 17/17
f 21/21 22/22 23/23
f 24/24 22/22 21/21
f 25/25 26/26 27/27
f 28/28 26/26 25/25
f 29/29 30/30 31/31
f 32/32 30/30 29/29
f 33/33 34/34 35/35
f 36/36 34/34 33/33
f 37/37 38/38 39/39
f 40/40 38/38 37/37
f 41/41 42/42 43/43
f 44/44 42/42 41/41
f 45/45 46/46 47/47
f 48/48 46/46 45/45
f 49/49 50/50 51/51
f 52/52 50/50 49/49
f 53/53 54/54 55/55
f 56/56 54/54 53/53
f 57/57 58/58 59/59
f 60/60 58/58 57/57
f 61/61 62/62 63/63
f 64/64 62/62 61/61
f 65/65 66/66 67/67
f 68/68 66/66 65/65
f 69/69 70/70 71/71
f 72/72 70/70 69/69
f 73/73 74/74 75/75
f 76/76 74/74 73/73
f 77/77 78/78 79/79
f 80/80 78/78 77/77
f 81/81 82/82 83/83
f 84/84 82/82 81/81
f 85/85 86/86 87/87
f 88/88 86/86 85/85
f 89/89 90/90 91/91
f 92/92 90/90 89/89
f 93/93 94/94 95/95
f 96/96 94/94 93/93
f 97/97 98/98 99/99
f 100/100 98/98 97/97
f 101/101 102/102 103/103
f 104/104 102/102 101/101
f 105/105 106/106 107/107
f 108/108 106/106 105/105
f 109/109 110/110 111/111
f 112/112 110/110 109/109
f 113/113 114/114 115/115
f 116/116 114/114 113/113
f 117/117 118/118 119/119
f 120/120 118/118 117/117
f 121/121 122/122 123/123
f 124/124 122/122 121/121
f 125/125 126/126 127/127
f 128/128 126/126 125/125
f 129/129 130/130 131/131
f 132/132 130/130 129/129
f 133/133 134/134 135/135
f 136/136 134/134 133/133
f 137/137 138/138 139/139
f 140/140 138/138 137/137
f 141/141 142/142 143/143
f 144/144 142/142 141/141
f 145/145 146/146 147/147
f 148/148 146/146 145/145
f 149/149 150/150 151/151
f 152/152 150/150 149/149
f 153/153 154/154 155/155
f 156/156 154/154 153/153
f 157/157 158/158 159/159
f 160/160 158/158 157/157
f 161/161 162/162 163/163
f 164/164 162/162 161/161
f 165/165 166/166 167/167
f 168/168 166/166 165/165
f 169/169 170/170 171/171
f 172/172 170/170 169/169
f 173/173 174/174 175/175
f 176/176 174/174 173/173
f 177/177 178/178 179/179
f 180/180 178/178 177/177
f 181/181 182/182 183/183
f 184/184 182/182 181/181
f 185/185 186/186 187/187
f 188/188 186/186 185/185
f 189/189 190/190 191/191
f 192/192 190/190 189/189
f 193/193 194/194 195/195
f 196/196 194/194 193/193
f 197/197 198/198 199/199
f 200/200 198/198 197/197
f 201/201 202/202 203/203
f 204/204 202/202 201/201
f 205/205 206/206 207/207
f 208/208 206/206 205/205
f 209/209 210/210 211/211
f 212/212 210/210 209/209
f 213/213 214/214 215/215
f 216/216 214/214 213/213
f 217/217 218/218 219/219
f 220/220 218/218 217/217
f 221/221 222/222 223/223
f 224/224 222/222 221/221
f 225/225 226/226 227/227
f 228/228 226/226 225/225
f 229/229 230/230 231/231
f 232/232 230/230 229/229
f 233/233 234/234 235/235
f 236/236 234/234 233/233
