# Plante extraite de « Stylized Nature Pack Vol.1 »
v 6.479174137 3.472620010 -3.79766107
v 6.701848030 3.472620010 -4.04241896
v 6.479174137 3.472620010 -4.04241896
v 6.701848030 3.333164930 -3.79766107
v 6.479174137 3.472620010 -3.50857902
v 6.994627952 3.333164930 -3.79766107
v 6.994627952 3.472620010 -4.04241896
v 6.701848030 3.333164930 -3.50857902
v 6.994627952 3.333164930 -3.50857902
v 6.479174137 3.472620010 -3.30156207
v 6.701848030 3.472620010 -3.30156207
v 6.994627952 3.472620010 -3.30156207
v 7.236261844 3.472620010 -3.30156207
v 7.236261844 3.472620010 -3.50857902
v 7.236261844 3.472620010 -3.79766011
v 7.236261844 3.472620010 -4.04241896
v 4.725758075 2.521770000 -3.79193211
v 4.913784980 2.586297988 -4.01043892
v 4.725758075 2.521770000 -4.01043892
v 4.954196929 2.468542099 -3.79193211
v 4.725758075 2.521770000 -3.53385496
v 5.201423168 2.553386926 -3.79193211
v 5.161011219 2.671143055 -4.01043892
v 4.954196929 2.468542099 -3.53385496
v 5.201423168 2.553388118 -3.53385496
v 4.725758075 2.521770000 -3.34904099
v 4.913784980 2.586297988 -3.34904099
v 5.161011219 2.671143055 -3.34904099
v 5.365046978 2.741164922 -3.34904099
v 5.365046978 2.741164922 -3.53385496
v 5.365046978 2.741164922 -3.79193091
v 5.365046978 2.741164922 -4.01043892
v 5.925487995 2.850313901 -1.84686995
v 6.090097904 2.983072996 -2.053128
v 5.902070999 2.918544054 -2.05312705
v 6.151661872 2.803689003 -1.88797104
v 5.953144073 2.769728899 -1.60326195
v 6.398887157 2.888534069 -1.887972
v 6.337324142 3.067918062 -2.05312896
v 6.179317951 2.723104000 -1.64436305
v 6.426544189 2.807949066 -1.644364
v 5.972949981 2.712021112 -1.42881
v 6.160976886 2.776549100 -1.42881095
v 6.408203125 2.861394882 -1.42881203
v 6.612238884 2.931416988 -1.42881298
v 6.592433929 2.989125967 -1.60326397
v 6.564775943 3.069710969 -1.84687197
v 6.541359901 3.137940883 -2.05312991
v 4.177127838 1.693588972 -1.940714
v 4.248929977 1.883443951 -2.15533805
v 4.126808166 1.726652979 -2.15076303
v 4.393208980 1.776198983 -1.97947598
v 4.236560821 1.654538035 -1.69262898
v 4.553780078 1.982354998 -1.98549294
v 4.409502029 2.089597940 -2.16135597
v 4.452641964 1.737149000 -1.73139095
v 4.613214016 1.943303942 -1.73740804
v 4.279122829 1.626574039 -1.51496994
v 4.401246070 1.783364057 -1.51954603
v 4.561817169 1.989519000 -1.525563
v 4.694336891 2.159658908 -1.53052902
v 4.651774883 2.187623977 -1.70818806
v 4.592341899 2.226675033 -1.95627296
v 4.542020797 2.259738922 -2.16632199
v 5.734469890 1.514754056 -5.29833794
v 6.023170948 1.502028942 -5.35960388
v 5.872217178 1.379289031 -5.40041924
v 5.905488014 1.577214002 -5.150455
v 5.571778774 1.674749970 -5.17777014
v 6.103969097 1.738597989 -5.09678984
v 6.221651077 1.663413047 -5.30593777
v 5.742796897 1.737210989 -5.02988815
v 5.941277027 1.898594975 -4.97622299
v 5.455272197 1.789325952 -5.09143019
v 5.606225967 1.912065982 -5.05061388
v 5.804707050 2.073450088 -4.9969492
v 5.968513011 2.206640958 -4.95266008
v 6.085020065 2.092063903 -5.03900003
v 6.247711181 1.932067990 -5.15956688
v 6.385457992 1.796604037 -5.26164818
v 6.978608131 2.407202005 -4.8721261
v 7.251380920 2.336019039 -4.78385687
v 7.131715774 2.259893894 -4.92315483
v 7.050593853 2.404697895 -4.64890099
v 6.797772884 2.581187009 -4.81185913
v 7.207933902 2.504789114 -4.46574783
v 7.408720016 2.436108112 -4.60070276
v 6.869760036 2.578681945 -4.58863306
v 7.027100086 2.678771972 -4.40547991
v 6.668274879 2.705780029 -4.76870012
v 6.787939071 2.781903028 -4.62940216
v 6.945279121 2.881994009 -4.44624901
v 7.075132846 2.964598894 -4.29509211
v 7.204630851 2.840006113 -4.33825016
v 7.385466098 2.666022062 -4.39851904
v 7.538574218 2.518713951 -4.44954586
v 8.209679603 1.017117977 -5.17003107
v 8.433326721 0.901674985 -5.01537418
v 8.313661575 0.825550973 -5.15466976
v 8.249512672 1.056995034 -4.9423461
v 8.086868286 1.243373036 -5.18817282
v 8.406852722 1.157086014 -4.75919199
v 8.590667724 1.001765012 -4.83222103
v 8.126700401 1.283251047 -4.96048594
v 8.284041404 1.383340954 -4.77733421
v 7.998919963 1.405400037 -5.20116377
v 8.118585586 1.481523037 -5.06186724
v 8.275925636 1.581614017 -4.87871504
v 8.405779838 1.664217948 -4.72755814
v 8.493727684 1.502192020 -4.71456623
v 8.616539001 1.275936961 -4.69642401
v 8.720520973 1.084370017 -4.68106318
v 9.273542404 1.854138970 -3.69397712
v 9.427055358 1.704524040 -3.49072099
v 9.377523422 1.662572979 -3.678617
v 9.218062400 1.842272996 -3.46638393
v 9.150730133 2.080394983 -3.7121191
v 9.283187866 1.897433042 -3.21933103
v 9.492180824 1.759683966 -3.24366808
v 9.095250129 2.068528890 -3.48452497
v 9.160375595 2.123688936 -3.23747301
v 9.062782287 2.242420911 -3.72511101
v 9.112313270 2.284373045 -3.53721499
v 9.177438736 2.339531898 -3.29016209
v 9.231186866 2.385056018 -3.08626795
v 9.319135665 2.223028898 -3.07327604
v 9.441947937 1.996773958 -3.05513406
v 9.545928955 1.805207967 -3.03977394
v 8.660615921 2.645020008 -2.89305592
v 8.754888534 2.501923084 -2.65243196
v 8.814729690 2.498781919 -2.84197688
v 8.520870208 2.555675983 -2.72720599
v 8.478593826 2.817739963 -2.95338511
v 8.442187309 2.559807062 -2.47798395
v 8.676205635 2.506052017 -2.40321112
v 8.338848114 2.728396892 -2.78753304
v 8.260166168 2.732527017 -2.53831291
v 8.348244667 2.941428899 -2.99658704
v 8.288404464 2.944570064 -2.80704093
v 8.209721565 2.948698997 -2.55782104
v 8.144784927 2.952107906 -2.35213709
v 8.275134086 2.828418970 -2.30893493
v 8.457156181 2.655699014 -2.24860597
v 8.611268997 2.509460926 -2.19752789
v 8.068348884 2.455200910 -1.64953494
v 8.109575271 2.242170095 -1.44907999
v 8.222463607 2.308963060 -1.59845603
v 7.902630806 2.305902004 -1.57697701
v 7.886328220 2.627921104 -1.70986402
v 7.754200935 2.218080043 -1.38057101
v 7.961144924 2.154349088 -1.25267506
v 7.720610141 2.478621006 -1.63730597
v 7.572179794 2.390799999 -1.44089997
v 7.755978107 2.751609087 -1.75306594
v 7.643089771 2.684817075 -1.60369003
v 7.494659900 2.596995115 -1.40728402
v 7.372160911 2.524516105 -1.24519002
v 7.502510070 2.400826931 -1.20198798
v 7.684532165 2.228106975 -1.14165902
v 7.838644981 2.081868886 -1.09057999
v 7.159183979 1.945196032 -0.366566
v 7.175333023 1.682734966 -0.23196501
v 7.313298225 1.798956990 -0.31548801
v 7.003227233 1.771883010 -0.392207
v 6.977162838 2.117916107 -0.42689601
v 6.821824073 1.619070053 -0.282388
v 6.993929863 1.529922008 -0.122147
v 6.821205139 1.944602012 -0.452535
v 6.639801979 1.791789054 -0.34271601
v 6.846814155 2.241604089 -0.47009799
v 6.708847999 2.125381946 -0.386576
v 6.527444839 1.972568035 -0.27675599
v 6.377733230 1.846449971 -0.186122
v 6.508082866 1.722761988 -0.142919
v 6.690104007 1.550042033 -0.082591
v 6.844216823 1.403803944 -0.031512
v 7.267384052 0.736925005 -3.78330994
v 5.577497959 0.736925005 -3.78330898
v 5.577497959 3.450444936 -3.92716503
v 7.267384052 3.450444936 -3.92716599
v 8.281499862 -0.19085 -2.10142899
v 7.892583847 0.048827998 -3.72839403
v 9.089006424 2.487493991 -3.65513802
v 9.477923393 2.247817039 -2.02817392
v 7.794810771 0.034644998 -1.65938199
v 8.600793838 -0.31742999 -3.1023469
v 9.797216415 2.121236085 -3.02909207
v 8.991233825 2.473310947 -1.586128
v 7.706634998 0.273813009 -3.56769204
v 6.575522899 -0.200185 -4.73028708
v 6.751918792 2.246429920 -5.89940691
v 7.883029937 2.72042799 -4.73681307
v 8.618312835 -0.293495 -3.61435509
v 7.149630069 0.428167998 -3.19258595
v 8.366081237 2.856669902 -3.11192393
v 9.834763526 2.135006904 -3.53369308
v 6.109038829 0.369814992 -2.11385202
v 4.574726104 -0.29696599 -1.87509596
v 3.589762926 2.171773910 -1.31024098
v 5.124075889 2.838552951 -1.54899704
v 9.152917861 0.987253010 -2.10651898
v 7.928440094 0.205840006 -2.97009492
v 6.795454978 2.609409093 -3.53850389
v 8.019932746 3.390821933 -2.6749289
v 7.520361900 0.487345993 -3.35475111
v 7.530317783 -0.40562901 -4.78939819
v 7.709562778 1.896850943 -6.22130108
v 7.699607849 2.789827108 -4.786654
v 6.263214111 0.553991973 -3.40495801
v 6.273170948 -0.338985 -4.8396039
v 6.452415943 1.963495969 -6.27150583
v 6.442460060 2.856471061 -4.83686113
v 8.124798774 -0.113569 -3.25964093
v 7.240328788 0.087614998 -4.68545818
v 8.474311828 2.470237016 -5.11473894
v 9.358781814 2.269053936 -3.68892097
v 5.896564960 -0.034778 -3.75110698
v 5.896564960 1.943511962 -3.36060905
v 8.023928642 1.943511962 -3.36061001
v 8.023928642 -0.034779 -3.75110698
v 6.521499157 0.171633005 -4.77652502
v 6.521500110 1.930734992 -4.42929602
v 7.137576103 1.584380030 -2.67462897
v 7.137574195 -0.174722 -3.02185798
v 6.535051822 0.106223002 -4.43711901
v 6.535052776 1.778478980 -4.10703611
v 7.965777874 1.567513942 -3.03825998
v 7.965776920 -0.104742 -3.36834311
v 5.467080116 0.122363999 -4.51889086
v 5.467080116 1.794620990 -4.18881321
v 7.252252101 1.836567997 -4.40133095
v 7.252252101 0.164312005 -4.73140907
v 5.326519966 0.219569996 -3.37405491
v 5.326519966 1.891826987 -3.04398108
v 6.452428817 2.163352012 -4.41961193
v 6.452429771 0.491095006 -4.74968719
v 6.573997020 -0.052197 -2.18575501
v 6.694904804 1.631808996 -1.95144606
v 5.575142860 1.904278039 -3.33189988
v 5.454234123 0.220273003 -3.56620908
v 6.715283870 0.582158029 -2.74572897
v 7.243972778 2.008985996 -2.82101488
v 6.130889892 2.363167047 -3.92507195
v 5.602200985 0.936338007 -3.849787
v 7.943121910 -0.022987 -3.0926919
v 7.991220951 1.660513997 -3.35519195
v 6.214242935 1.751873016 -3.09487605
v 6.166143894 0.068371996 -2.832376
v 6.001473903 -0.049523 -2.85957193
v 6.354527950 2.456413030 -2.51311493
v 8.241964340 2.456413030 -4.43649101
v 7.888910770 -0.049523 -4.78294802
v 5.628832817 0.211942002 -4.33435202
v 5.942770004 2.440227985 -4.02628613
v 8.075779914 2.001493930 -3.02651405
v 7.761844158 -0.22679301 -3.3345809
v 5.947720050 0.129086002 -4.04547882
v 6.246153831 2.247363090 -3.75262403
v 8.481813430 1.980129957 -4.09792185
v 8.183380127 -0.13814799 -4.39077806
v 4.926263809 0.149533003 -3.1524601
v 5.224692821 2.267810106 -2.85961008
v 6.616388797 2.320945978 -4.66215706
v 6.317962169 0.202666997 -4.95500803
v 5.836617946 0.272664010 -2.00965905
v 6.135042190 2.390943050 -1.71681094
v 5.890244007 2.734889030 -3.95524693
v 5.591819763 0.616609990 -4.24809504
v 8.017759323 -0.071587 -2.08323598
v 8.336873054 2.061573982 -1.98466802
v 6.095313072 2.406714916 -2.19704199
v 5.776198864 0.273555010 -2.29560995
v 7.636833190 0.731962025 -2.7077961
v 8.037826538 2.539350986 -3.25258493
v 6.052087783 2.987998008 -3.22577405
v 5.651092052 1.180608034 -2.68098402
v 8.412499427 -0.034587 -4.1257329
v 8.217844009 2.097934007 -4.40211391
v 6.876630783 2.213660001 -2.564569
v 7.071287155 0.081137999 -2.28818703
v 5.026467800 -0.049524 -1.86599898
v 5.379521846 2.456412077 -1.51954198
v 7.266958236 2.456413030 -3.44291902
v 6.913905143 -0.049524 -3.78937697
v 4.653827190 0.211942002 -3.34078002
v 4.967762947 2.440227031 -3.03271294
v 7.100773811 2.001493930 -2.0329411
v 6.786839008 -0.22679301 -2.3410089
v 4.972713947 0.129086002 -3.05190611
v 5.271148204 2.247361898 -2.75905204
v 7.506806850 1.980129957 -3.10435009
v 7.208374023 -0.13814799 -3.39720511
v 3.951257944 0.149532005 -2.1588881
v 4.249685764 2.267810106 -1.86603701
v 5.641384124 2.320945024 -3.66858411
v 5.342956066 0.202666997 -3.96143508
v 4.861611843 0.272664010 -1.01608706
v 5.160036087 2.390943050 -0.723239
v 4.915237903 2.734888076 -2.96167397
v 4.616814136 0.616609990 -3.25452209
v 7.042754173 -0.071587 -1.08966398
v 7.361866951 2.061573028 -0.99109602
v 5.120306968 2.406714916 -1.20346904
v 4.801193237 0.273553997 -1.302037
v 6.661827087 0.731961011 -1.71422398
v 7.062821865 2.539350986 -2.25901389
v 5.077082157 2.987997055 -2.23220205
v 4.676085948 1.180606961 -1.68741298
v 7.437493801 -0.034587 -3.13215995
v 7.242836952 2.097934007 -3.40854192
v 5.901625156 2.213660001 -1.57099605
v 6.096281051 0.081137999 -1.29461396
v 5.483915805 -0.049523 -2.94707298
v 5.950671196 2.456413030 -3.11083794
v 5.058508873 2.456413030 -5.65363884
v 4.591753959 -0.049523 -5.48987484
v 3.996170043 0.211942002 -3.2640121
v 4.411205768 2.440227985 -3.40963292
v 6.250164032 2.001493930 -4.88187981
v 5.835127830 -0.22679199 -4.73625898
v 4.396172046 0.129086002 -3.42255092
v 4.790713787 2.247363090 -3.56098008
v 5.468195915 1.980129957 -5.71931887
v 5.073653221 -0.13814799 -5.58088923
v 4.746312141 0.149533003 -2.11172795
v 5.140848159 2.267810106 -2.25015497
v 4.138173103 2.320945978 -4.29481602
v 3.743638038 0.202666997 -4.15639019
v 6.173663139 0.272664010 -2.42383409
v 6.568192958 2.390944004 -2.56225801
v 4.451746940 2.734889030 -3.33113503
v 4.057216167 0.616609990 -3.19271111
v 7.070858001 -0.071587 -4.4132638
v 7.300218105 2.061573982 -4.65604591
v 6.119782924 2.406716108 -2.73868704
v 5.890422821 0.273555010 -2.49590397
v 6.34227705 0.731962025 -4.34730291
v 6.030570983 2.539350986 -4.94766378
v 5.177708149 2.987998008 -3.15420198
v 5.489414215 1.180608034 -2.55384207
v 5.412633895 -0.034587 -5.66941118
v 5.078701019 2.097934007 -5.616817
v 6.135072231 2.213660001 -3.60199499
v 6.469005107 0.081138998 -3.65458894
v 7.398697853 -0.049524 -0.94227999
v 7.865452766 2.456413030 -1.10604405
v 6.973290920 2.456413030 -3.64884591
v 6.506536006 -0.049524 -3.48508191
v 5.910952091 0.211942002 -1.25921905
v 6.325988769 2.440227031 -1.40483904
v 8.164945602 2.001493930 -2.87708592
v 7.749909877 -0.22679301 -2.7314651
v 6.310955047 0.129086002 -1.41775703
v 6.705495834 2.247361898 -1.55618596
v 7.382977962 1.980129957 -3.71452498
v 6.988436222 -0.13814799 -3.5760951
v 6.661095142 0.149532005 -0.106935
v 7.055631160 2.267810106 -0.245362
v 6.052957058 2.320945024 -2.2900219
v 5.658420085 0.202666997 -2.15159607
v 8.088444709 0.272664010 -0.41904101
v 8.482976913 2.390943050 -0.55746502
v 6.366528987 2.734889030 -1.32634199
v 5.971996784 0.616609990 -1.18791699
v 8.985640525 -0.071587 -2.40846992
v 9.215000152 2.061573028 -2.65125299
v 8.034564971 2.406714916 -0.73389298
v 7.805205822 0.273553997 -0.49111
v 8.257060051 0.731961011 -2.34251094
v 7.945353984 2.539350986 -2.9428699
v 7.092490196 2.987997055 -1.14940906
v 7.404197216 1.180606961 -0.54904801
v 7.327415943 -0.034587 -3.66461802
v 6.993484020 2.097934007 -3.61202312
v 8.049854278 2.213660001 -1.59720099
v 8.383787155 0.081137999 -1.64979506
v 6.931035995 0.127960994 -2.59615493
v 7.160380840 2.261123895 -2.83892798
v 8.949345588 2.229227066 -1.42917395
v 8.720000267 0.096064999 -1.18640101
v 6.701840877 0.740840971 -2.23878002
v 7.168597221 3.246777057 -2.40254498
v 6.276434898 3.246777057 -4.94534683
v 5.809679031 0.740840971 -4.78158283
v 5.214095115 1.002305984 -2.55572009
v 5.629131794 3.230592012 -2.70134091
v 7.468090057 2.791858911 -4.17358685
v 7.053052902 0.563571989 -4.02796602
v 5.614098072 0.919449985 -2.71425796
v 6.008639812 3.037727117 -2.85268903
v 6.686120986 2.770493984 -5.01102591
v 6.291578769 0.652216970 -4.87259722
v 5.964238166 0.939897000 -1.40343595
v 6.358773231 3.058175087 -1.54186296
v 5.356099128 3.111310005 -3.58652401
v 4.961564064 0.993031978 -3.44809699
v 7.391586780 1.063027977 -1.71554196
v 7.786118984 3.181307077 -1.853966
v 5.669672012 3.525253057 -2.62284303
v 5.275139808 1.406975030 -2.48441911
v 8.288784027 0.718777000 -3.70497108
v 8.518142700 2.851938009 -3.94775391
v 7.337707996 3.197079896 -2.03039503
v 7.108348846 1.063918948 -1.78761101
v 7.560203075 1.522325992 -3.6390121
v 7.248496055 3.329715967 -4.23937082
v 6.395633220 3.778362035 -2.44590998
v 6.70733881 1.970971941 -1.84554899
v 6.630559921 0.755777001 -4.96111917
v 6.296627044 2.888298988 -4.90852499
v 7.352996826 3.004024028 -2.89370203
v 7.686930179 0.871502995 -2.94629598
v 7.517716884 0.736925005 -3.1103611
v 6.373911857 0.736925005 -4.35431623
v 6.4798069 3.450444936 -4.45168495
v 7.623611927 3.450444936 -3.20773005
v 6.966061115 -0.19085 -1.22546506
v 7.900461196 0.048827998 -2.61296892
v 8.656336784 2.487493991 -1.68267596
v 7.721938133 2.247817039 -0.29517299
v 6.311244010 0.034644998 -1.28452599
v 7.918969154 -0.31742999 -1.66790104
v 8.674846649 2.121236085 -0.73760903
v 7.067121982 2.473310947 -0.35423499
v 7.656304836 0.273813009 -2.641078
v 7.746516227 -0.200185 -4.26061583
v 8.726520538 2.246429920 -4.92209005
v 8.636310577 2.72042799 -3.30255294
v 8.307725906 -0.293495 -2.00155902
v 7.003171920 0.428167998 -2.79720807
v 7.767152786 2.856669902 -1.84715998
v 9.071706771 2.135006904 -1.05151105
v 5.504768848 0.369814992 -2.83306193
v 4.290513038 -0.29696599 -3.80089593
v 3.208036899 2.171773910 -4.14362192
v 4.422294139 2.838552951 -3.17578793
v 7.559628009 0.987253010 -0.58744401
v 7.366531848 0.205840006 -2.073318
v 7.018085002 2.609409093 -3.29205894
v 7.211181163 3.390821933 -1.80618501
v 7.373476028 0.487345993 -2.63406801
v 8.436285018 -0.40562901 -3.59778309
v 9.611658096 1.896850943 -4.43502522
v 8.548849105 2.789827108 -3.47130895
v 6.559529781 0.553991973 -3.59346008
v 7.622338771 -0.338985 -4.55717421
v 8.797711372 1.963495969 -5.39441586
v 7.734902858 2.856471061 -4.43070078
v 7.712577819 -0.113569 -2.12475491
v 8.163492202 0.087614998 -3.74089789
v 9.314719200 2.470237016 -3.12310004
v 8.863803863 2.269053936 -1.50695705
v 6.566168785 -0.034778 -4.0976491
v 6.278716087 1.943511962 -3.83333898
v 7.718627929 1.943511962 -2.267349
v 8.006080627 -0.034779 -2.53165793
v 7.743987083 0.171633005 -4.33168077
v 7.488386154 1.930734992 -4.0966568
v 6.613735199 1.584380030 -2.45550108
v 6.869336128 -0.174722 -2.69052601
v 7.503315925 0.106223002 -4.09197712
v 7.260337829 1.778478980 -3.86855698
v 7.441980838 1.567513942 -2.09197092
v 7.684960842 -0.104742 -2.31538892
v 6.840651035 0.122363999 -4.93347692
v 6.597674846 1.794620990 -4.71006298
v 7.962410926 1.836567997 -3.53980899
v 8.205388069 0.164312005 -3.76322293
v 5.902777195 0.219569996 -4.26206112
v 5.659803867 1.891826987 -4.03864908
v 7.434505939 2.163352012 -4.14094687
v 7.677482128 0.491095006 -4.36435699
v 5.872406005 -0.052197 -2.5394659
v 5.781764030 1.631808996 -2.29187107
v 6.040028095 1.904278039 -4.05051184
v 6.130670070 0.220273003 -4.2981081
v 6.380242824 0.582158029 -2.81448197
v 6.793508052 2.008985996 -2.47626209
v 6.852831840 2.363167047 -4.04290724
v 6.439568996 0.936338007 -4.38112688
v 7.466715812 -0.022987 -2.14548993
v 7.692502021 1.660513997 -2.28775811
v 6.298126220 1.751873016 -3.4196279
v 6.072339057 0.068371996 -3.27736211
v 5.980902195 -0.049523 -3.41698599
v 5.964832782 2.456413030 -2.92259598
v 8.658183097 2.456413030 -2.83506203
v 8.674251556 -0.049523 -3.32945108
v 6.814291954 0.211942002 -4.68950176
v 6.800006866 2.440227985 -4.24989223
v 7.507791042 2.001493930 -2.00304699
v 7.522076129 -0.22679301 -2.44265604
v 6.817485809 0.129086002 -4.2592392
v 6.803905010 2.247363090 -3.84133697
v 8.571298599 1.980129957 -2.42934299
v 8.584878921 -0.13814799 -2.84724498
v 5.468743801 0.149533003 -4.40670919
v 5.455163955 2.267810106 -3.98881507
v 7.724024772 2.320945978 -4.18441916
v 7.737606048 0.202666997 -4.60231495
v 5.243681907 0.272664010 -2.96307302
v 5.230100154 2.390943050 -2.54518294
v 6.712162017 2.734889030 -4.24047518
v 6.725743770 0.616609990 -4.65836477
v 6.774155139 -0.071587 -1.40729499
v 6.917590141 2.061573982 -1.10567403
v 5.556715965 2.406714916 -2.89947391
v 5.413280963 0.273555010 -3.2010951
v 6.976074218 0.731962025 -2.11043811
v 7.648518085 2.539350986 -2.18400002
v 6.284728050 2.987998008 -3.62759209
v 5.612283229 1.180608034 -3.5540309
v 8.544855117 -0.034587 -2.49919009
v 8.616552352 2.097934007 -2.82954907
v 6.356095790 2.213660001 -2.57309198
v 6.284399986 0.081137999 -2.242733
v 4.589580059 -0.049524 -3.46220303
v 4.573511123 2.456412077 -2.96781397
v 7.266860961 2.456413030 -2.88028002
v 7.282928943 -0.049524 -3.37466908
v 5.422968864 0.211942002 -4.73472118
v 5.408685207 2.440227031 -4.29511023
v 6.116466999 2.001493930 -2.04826403
v 6.130753994 -0.22679301 -2.48787403
v 5.426164150 0.129086002 -4.30445719
v 5.412582874 2.247361898 -3.88655496
v 7.179975986 1.980129957 -2.47456098
v 7.193555831 -0.13814799 -2.89246297
v 4.077422142 0.149532005 -4.45192814
v 4.063840866 2.267810106 -4.03403282
v 6.332702159 2.320945024 -4.22963715
v 6.346282959 0.202666997 -4.64753199
v 3.852360010 0.272664010 -3.00829196
v 3.838778019 2.390943050 -2.59040093
v 5.320838928 2.734888076 -4.28569221
v 5.334421157 0.616609990 -4.70358181
v 5.382832050 -0.071587 -1.45251298
v 5.526267051 2.061573028 -1.15089202
v 4.165393829 2.406714916 -2.94469094
v 4.021957874 0.273553997 -3.2463131
v 5.584751129 0.731961011 -2.1556561
v 6.257194995 2.539350986 -2.22921801
v 4.893404960 2.987997055 -3.67281103
v 4.220961093 1.180606961 -3.59924889
v 7.153532981 -0.034587 -2.54440689
v 7.225228786 2.097934007 -2.87476707
v 4.964774131 2.213660001 -2.61830997
v 4.893077850 0.081137999 -2.28795099
v 5.695003032 -0.049523 -3.8571949
v 6.131476879 2.456413030 -3.62445307
v 7.399417877 2.456413030 -6.00229216
v 6.962944984 -0.049523 -6.23503399
v 4.921321868 0.211942002 -5.16687298
v 5.309434890 2.440227985 -4.95992184
v 7.637887001 2.001493930 -4.60272503
v 7.249773979 -0.22679199 -4.80967712
v 5.308767795 0.129086002 -4.97973204
v 5.677714824 2.247363090 -4.78299904
v 7.725063800 1.980129957 -5.74517012
v 7.356115818 -0.13814799 -5.94190216
v 4.580840110 0.149533003 -3.83475399
v 4.949780941 2.267810106 -3.6380229
v 5.776231765 2.320945978 -5.76004505
v 5.407289981 0.202666997 -5.95677614
v 5.776692867 0.272664010 -2.99530411
v 6.145628929 2.390944004 -2.79857612
v 5.279090881 2.734889030 -4.87694693
v 4.910155773 0.616609990 -5.07367706
v 7.848419189 -0.071587 -3.68141294
v 8.182377815 2.061573982 -3.67690492
v 5.971992969 2.406716108 -3.24807501
v 5.638033866 0.273555010 -3.25258207
v 7.306722164 0.731962025 -4.17308998
v 7.537679195 2.539350986 -4.80889702
v 5.640215873 2.987998008 -4.22279596
v 5.409257888 1.180608034 -3.58698797
v 7.650719165 -0.034587 -5.75228882
v 7.385980129 2.097934007 -5.96250391
v 6.617838859 2.213660001 -3.82115293
v 6.882576942 0.081138998 -3.61093712
v 5.515262126 -0.049524 -1.09073901
v 5.951735973 2.456413030 -0.85799599
v 7.219677925 2.456413030 -3.23583603
v 6.783204078 -0.049524 -3.4685781
v 4.741581916 0.211942002 -2.40041804
v 5.129694938 2.440227031 -2.19346404
v 7.458146095 2.001493930 -1.83626795
v 7.070034027 -0.22679301 -2.04322004
v 5.129027843 0.129086002 -2.213274
v 5.497974872 2.247361898 -2.01654196
v 7.545322895 1.980129957 -2.97871208
v 7.176374912 -0.13814799 -3.17544603
v 4.401101112 0.149532005 -1.06829703
v 4.770041942 2.267810106 -0.871566
v 5.59649086 2.320945024 -2.99358702
v 5.227550983 0.202666997 -3.19031906
v 5.596951961 0.272664010 -0.228847
v 5.965888977 2.390943050 -0.032118
v 5.099351882 2.734889030 -2.11049104
v 4.730413913 0.616609990 -2.30721998
v 7.668677806 -0.071587 -0.91495597
v 8.002637863 2.061573028 -0.91044801
v 5.792253017 2.406714916 -0.48161799
v 5.458293914 0.273553997 -0.48612601
v 7.126982212 0.731961011 -1.40663302
v 7.357938766 2.539350986 -2.04244089
v 5.460475921 2.987997055 -1.45633996
v 5.229518890 1.180606961 -0.82053101
v 7.470977783 -0.034587 -2.98583102
v 7.206239223 2.097934007 -3.19604707
v 6.438097953 2.213660001 -1.05469596
v 6.702837944 0.081137999 -0.84447998
v 6.416172027 0.127960994 -2.55442405
v 6.750114917 2.261123895 -2.54992008
v 6.923233985 2.229227066 -0.27883399
v 6.589291095 0.096064999 -0.283337
v 5.997971057 0.740840971 -2.48124909
v 6.434445858 3.246777057 -2.24850512
v 7.702387809 3.246777057 -4.62634516
v 7.265913009 0.740840971 -4.85908794
v 5.224290847 1.002305984 -3.79092693
v 5.612403869 3.230592012 -3.58397388
v 7.940855979 2.791858911 -3.22677708
v 7.552742958 0.563571989 -3.43372989
v 5.611736774 0.919449985 -3.60378504
v 5.980685234 3.037727117 -3.40705204
v 8.028031349 2.770493984 -4.36922216
v 7.659084796 0.652216970 -4.56595516
v 4.883809089 0.939897000 -2.45880699
v 5.252750873 3.058175087 -2.2620759
v 6.079201221 3.111310005 -4.3840971
v 5.710259914 0.993031978 -4.58082819
v 6.079661846 1.063027977 -1.61935794
v 6.448598861 3.181307077 -1.42262805
v 5.582058906 3.525253057 -3.50100088
v 5.213122844 1.406975030 -3.69773102
v 8.151387214 0.718777000 -2.30546594
v 8.485347747 2.851938009 -2.30095792
v 6.274961948 3.197079896 -1.87212801
v 5.941002845 1.063918948 -1.87663496
v 7.609692096 1.522325992 -2.79714298
v 7.840648174 3.329715967 -3.43295002
v 5.943183898 3.778362035 -2.84684992
v 5.712226867 1.970971941 -2.21104097
v 7.953688144 0.755777001 -4.37634087
v 7.688949108 2.888298988 -4.58655691
v 6.920807838 3.004024028 -2.44520593
v 7.185546875 0.871502995 -2.23498988
vt 0.230045005 0.502812981
vt 0.178559005 0.446220040
vt 0.230045005 0.446220040
vt 0.178559005 0.502812981
vt 0.230045005 0.569652974
vt 0.110863000 0.502812981
vt 0.110863000 0.446220040
vt 0.178559005 0.569652974
vt 0.110863000 0.569652974
vt 0.230045005 0.617519021
vt 0.178559005 0.617519021
vt 0.110863000 0.617519021
vt 0.054992999 0.617519021
vt 0.054992999 0.569652974
vt 0.054992999 0.502812981
vt 0.054992999 0.446220040
vt 0.230045005 0.502812981
vt 0.178559005 0.446220040
vt 0.230045005 0.446220040
vt 0.178559005 0.502812981
vt 0.230045005 0.569652974
vt 0.110863000 0.502812981
vt 0.110863000 0.446220040
vt 0.178559005 0.569652974
vt 0.110863000 0.569652974
vt 0.230045005 0.617519021
vt 0.178559005 0.617519021
vt 0.110863000 0.617519021
vt 0.054992999 0.617519021
vt 0.054992999 0.569652974
vt 0.054992999 0.502812981
vt 0.054992999 0.446220040
vt 0.230045005 0.502812981
vt 0.178559005 0.446220040
vt 0.230045005 0.446220040
vt 0.178559005 0.502812981
vt 0.230045005 0.569652974
vt 0.110863000 0.502812981
vt 0.110863000 0.446220040
vt 0.178559005 0.569652974
vt 0.110863000 0.569652974
vt 0.230045005 0.617519021
vt 0.178559005 0.617519021
vt 0.110863000 0.617519021
vt 0.054992999 0.617519021
vt 0.054992999 0.569652974
vt 0.054992999 0.502812981
vt 0.054992999 0.446220040
vt 0.230045005 0.502812981
vt 0.178559005 0.446220040
vt 0.230045005 0.446220040
vt 0.178559005 0.502812981
vt 0.230045005 0.569652974
vt 0.110863000 0.502812981
vt 0.110863000 0.446220040
vt 0.178559005 0.569652974
vt 0.110863000 0.569652974
vt 0.230045005 0.617519021
vt 0.178559005 0.617519021
vt 0.110863000 0.617519021
vt 0.054992999 0.617519021
vt 0.054992999 0.569652974
vt 0.054992999 0.502812981
vt 0.054992999 0.446220040
vt 0.230045005 0.502812981
vt 0.178559005 0.446220040
vt 0.230045005 0.446220040
vt 0.178559005 0.502812981
vt 0.230045005 0.569652974
vt 0.110863000 0.502812981
vt 0.110863000 0.446220040
vt 0.178559005 0.569652974
vt 0.110863000 0.569652974
vt 0.230045005 0.617519021
vt 0.178559005 0.617519021
vt 0.110863000 0.617519021
vt 0.054992999 0.617519021
vt 0.054992999 0.569652974
vt 0.054992999 0.502812981
vt 0.054992999 0.446220040
vt 0.230045005 0.502812981
vt 0.178559005 0.446220040
vt 0.230045005 0.446220040
vt 0.178559005 0.502812981
vt 0.230045005 0.569652974
vt 0.110863000 0.502812981
vt 0.110863000 0.446220040
vt 0.178559005 0.569652974
vt 0.110863000 0.569652974
vt 0.230045005 0.617519021
vt 0.178559005 0.617519021
vt 0.110863000 0.617519021
vt 0.054992999 0.617519021
vt 0.054992999 0.569652974
vt 0.054992999 0.502812981
vt 0.054992999 0.446220040
vt 0.230045005 0.502812981
vt 0.178559005 0.446220040
vt 0.230045005 0.446220040
vt 0.178559005 0.502812981
vt 0.230045005 0.569652974
vt 0.110863000 0.502812981
vt 0.110863000 0.446220040
vt 0.178559005 0.569652974
vt 0.110863000 0.569652974
vt 0.230045005 0.617519021
vt 0.178559005 0.617519021
vt 0.110863000 0.617519021
vt 0.054992999 0.617519021
vt 0.054992999 0.569652974
vt 0.054992999 0.502812981
vt 0.054992999 0.446220040
vt 0.230045005 0.502812981
vt 0.178559005 0.446220040
vt 0.230045005 0.446220040
vt 0.178559005 0.502812981
vt 0.230045005 0.569652974
vt 0.110863000 0.502812981
vt 0.110863000 0.446220040
vt 0.178559005 0.569652974
vt 0.110863000 0.569652974
vt 0.230045005 0.617519021
vt 0.178559005 0.617519021
vt 0.110863000 0.617519021
vt 0.054992999 0.617519021
vt 0.054992999 0.569652974
vt 0.054992999 0.502812981
vt 0.054992999 0.446220040
vt 0.230045005 0.502812981
vt 0.178559005 0.446220040
vt 0.230045005 0.446220040
vt 0.178559005 0.502812981
vt 0.230045005 0.569652974
vt 0.110863000 0.502812981
vt 0.110863000 0.446220040
vt 0.178559005 0.569652974
vt 0.110863000 0.569652974
vt 0.230045005 0.617519021
vt 0.178559005 0.617519021
vt 0.110863000 0.617519021
vt 0.054992999 0.617519021
vt 0.054992999 0.569652974
vt 0.054992999 0.502812981
vt 0.054992999 0.446220040
vt 0.230045005 0.502812981
vt 0.178559005 0.446220040
vt 0.230045005 0.446220040
vt 0.178559005 0.502812981
vt 0.230045005 0.569652974
vt 0.110863000 0.502812981
vt 0.110863000 0.446220040
vt 0.178559005 0.569652974
vt 0.110863000 0.569652974
vt 0.230045005 0.617519021
vt 0.178559005 0.617519021
vt 0.110863000 0.617519021
vt 0.054992999 0.617519021
vt 0.054992999 0.569652974
vt 0.054992999 0.502812981
vt 0.054992999 0.446220040
vt 0.230045005 0.502812981
vt 0.178559005 0.446220040
vt 0.230045005 0.446220040
vt 0.178559005 0.502812981
vt 0.230045005 0.569652974
vt 0.110863000 0.502812981
vt 0.110863000 0.446220040
vt 0.178559005 0.569652974
vt 0.110863000 0.569652974
vt 0.230045005 0.617519021
vt 0.178559005 0.617519021
vt 0.110863000 0.617519021
vt 0.054992999 0.617519021
vt 0.054992999 0.569652974
vt 0.054992999 0.502812981
vt 0.054992999 0.446220040
vt 0.351442009 0.621509015
vt 0.552654027 0.621509015
vt 0.552654027 0.945056974
vt 0.351442009 0.945056974
vt 0.351442009 0.621509015
vt 0.552654027 0.621509015
vt 0.552654027 0.945056974
vt 0.351442009 0.945056974
vt 0.351442009 0.621509015
vt 0.552654027 0.621509015
vt 0.552654027 0.945056974
vt 0.351442009 0.945056974
vt 0.351442009 0.621509015
vt 0.552654027 0.621509015
vt 0.552654027 0.945056974
vt 0.351442009 0.945056974
vt 0.351442009 0.621509015
vt 0.552654027 0.621509015
vt 0.552654027 0.945056974
vt 0.351442009 0.945056974
vt 0.351442009 0.621509015
vt 0.552654027 0.621509015
vt 0.552654027 0.945056974
vt 0.351442009 0.945056974
vt 0.351442009 0.621509015
vt 0.552654027 0.621509015
vt 0.552654027 0.945056974
vt 0.351442009 0.945056974
vt 0.351442009 0.621509015
vt 0.552654027 0.621509015
vt 0.552654027 0.945056974
vt 0.351442009 0.945056974
vt 0.351442009 0.621509015
vt 0.552654027 0.621509015
vt 0.552654027 0.945056974
vt 0.351442009 0.945056974
vt 0.351442009 0.621509015
vt 0.552654027 0.621509015
vt 0.552654027 0.945056974
vt 0.351442009 0.945056974
vt 0.332540988 0.655345976
vt 0.332540988 0.954837977
vt 0.016578 0.954837977
vt 0.016578 0.655345976
vt 0.332540988 0.655345976
vt 0.332540988 0.954837977
vt 0.016578 0.954837977
vt 0.016578 0.655345976
vt 0.332540988 0.655345976
vt 0.332540988 0.954837977
vt 0.016578 0.954837977
vt 0.016578 0.655345976
vt 0.332540988 0.655345976
vt 0.332540988 0.954837977
vt 0.016578 0.954837977
vt 0.016578 0.655345976
vt 0.332540988 0.655345976
vt 0.332540988 0.954837977
vt 0.016578 0.954837977
vt 0.016578 0.655345976
vt 0.332540988 0.655345976
vt 0.332540988 0.954837977
vt 0.016578 0.954837977
vt 0.016578 0.655345976
vt 0.332540988 0.655345976
vt 0.332540988 0.954837977
vt 0.016578 0.954837977
vt 0.016578 0.655345976
vt 0.332540988 0.655345976
vt 0.332540988 0.954837977
vt 0.016578 0.954837977
vt 0.016578 0.655345976
vt 0.332540988 0.655345976
vt 0.332540988 0.954837977
vt 0.016578 0.954837977
vt 0.016578 0.655345976
vt 0.332540988 0.655345976
vt 0.332540988 0.954837977
vt 0.016578 0.954837977
vt 0.016578 0.655345976
vt 0.332540988 0.655345976
vt 0.332540988 0.954837977
vt 0.016578 0.954837977
vt 0.016578 0.655345976
vt 0.332540988 0.655345976
vt 0.332540988 0.954837977
vt 0.016578 0.954837977
vt 0.016578 0.655345976
vt 0.332540988 0.655345976
vt 0.332540988 0.954837977
vt 0.016578 0.954837977
vt 0.016578 0.655345976
vt 0.332540988 0.655345976
vt 0.332540988 0.954837977
vt 0.016578 0.954837977
vt 0.016578 0.655345976
vt 0.332540988 0.655345976
vt 0.332540988 0.954837977
vt 0.016578 0.954837977
vt 0.016578 0.655345976
vt 0.332540988 0.655345976
vt 0.332540988 0.954837977
vt 0.016578 0.954837977
vt 0.016578 0.655345976
vt 0.332540988 0.655345976
vt 0.332540988 0.954837977
vt 0.016578 0.954837977
vt 0.016578 0.655345976
vt 0.332540988 0.655345976
vt 0.332540988 0.954837977
vt 0.016578 0.954837977
vt 0.016578 0.655345976
vt 0.332540988 0.655345976
vt 0.332540988 0.954837977
vt 0.016578 0.954837977
vt 0.016578 0.655345976
vt 0.332540988 0.655345976
vt 0.332540988 0.954837977
vt 0.016578 0.954837977
vt 0.016578 0.655345976
vt 0.332540988 0.655345976
vt 0.332540988 0.954837977
vt 0.016578 0.954837977
vt 0.016578 0.655345976
vt 0.332540988 0.655345976
vt 0.332540988 0.954837977
vt 0.016578 0.954837977
vt 0.016578 0.655345976
vt 0.332540988 0.655345976
vt 0.332540988 0.954837977
vt 0.016578 0.954837977
vt 0.016578 0.655345976
vt 0.332540988 0.655345976
vt 0.332540988 0.954837977
vt 0.016578 0.954837977
vt 0.016578 0.655345976
vt 0.332540988 0.655345976
vt 0.332540988 0.954837977
vt 0.016578 0.954837977
vt 0.016578 0.655345976
vt 0.332540988 0.655345976
vt 0.332540988 0.954837977
vt 0.016578 0.954837977
vt 0.016578 0.655345976
vt 0.332540988 0.655345976
vt 0.332540988 0.954837977
vt 0.016578 0.954837977
vt 0.016578 0.655345976
vt 0.332540988 0.655345976
vt 0.332540988 0.954837977
vt 0.016578 0.954837977
vt 0.016578 0.655345976
vt 0.332540988 0.655345976
vt 0.332540988 0.954837977
vt 0.016578 0.954837977
vt 0.016578 0.655345976
vt 0.332540988 0.655345976
vt 0.332540988 0.954837977
vt 0.016578 0.954837977
vt 0.016578 0.655345976
vt 0.332540988 0.655345976
vt 0.332540988 0.954837977
vt 0.016578 0.954837977
vt 0.016578 0.655345976
vt 0.332540988 0.655345976
vt 0.332540988 0.954837977
vt 0.016578 0.954837977
vt 0.016578 0.655345976
vt 0.332540988 0.655345976
vt 0.332540988 0.954837977
vt 0.016578 0.954837977
vt 0.016578 0.655345976
vt 0.332540988 0.655345976
vt 0.332540988 0.954837977
vt 0.016578 0.954837977
vt 0.016578 0.655345976
vt 0.332540988 0.655345976
vt 0.332540988 0.954837977
vt 0.016578 0.954837977
vt 0.016578 0.655345976
vt 0.332540988 0.655345976
vt 0.332540988 0.954837977
vt 0.016578 0.954837977
vt 0.016578 0.655345976
vt 0.332540988 0.655345976
vt 0.332540988 0.954837977
vt 0.016578 0.954837977
vt 0.016578 0.655345976
vt 0.332540988 0.655345976
vt 0.332540988 0.954837977
vt 0.016578 0.954837977
vt 0.016578 0.655345976
vt 0.332540988 0.655345976
vt 0.332540988 0.954837977
vt 0.016578 0.954837977
vt 0.016578 0.655345976
vt 0.332540988 0.655345976
vt 0.332540988 0.954837977
vt 0.016578 0.954837977
vt 0.016578 0.655345976
vt 0.332540988 0.655345976
vt 0.332540988 0.954837977
vt 0.016578 0.954837977
vt 0.016578 0.655345976
vt 0.332540988 0.655345976
vt 0.332540988 0.954837977
vt 0.016578 0.954837977
vt 0.016578 0.655345976
vt 0.332540988 0.655345976
vt 0.332540988 0.954837977
vt 0.016578 0.954837977
vt 0.016578 0.655345976
vt 0.332540988 0.655345976
vt 0.332540988 0.954837977
vt 0.016578 0.954837977
vt 0.016578 0.655345976
vt 0.332540988 0.655345976
vt 0.332540988 0.954837977
vt 0.016578 0.954837977
vt 0.016578 0.655345976
vt 0.332540988 0.655345976
vt 0.332540988 0.954837977
vt 0.016578 0.954837977
vt 0.016578 0.655345976
vt 0.332540988 0.655345976
vt 0.332540988 0.954837977
vt 0.016578 0.954837977
vt 0.016578 0.655345976
vt 0.332540988 0.655345976
vt 0.332540988 0.954837977
vt 0.016578 0.954837977
vt 0.016578 0.655345976
vt 0.332540988 0.655345976
vt 0.332540988 0.954837977
vt 0.016578 0.954837977
vt 0.016578 0.655345976
vt 0.351442009 0.621509015
vt 0.552654027 0.621509015
vt 0.552654027 0.945056974
vt 0.351442009 0.945056974
vt 0.351442009 0.621509015
vt 0.552654027 0.621509015
vt 0.552654027 0.945056974
vt 0.351442009 0.945056974
vt 0.351442009 0.621509015
vt 0.552654027 0.621509015
vt 0.552654027 0.945056974
vt 0.351442009 0.945056974
vt 0.351442009 0.621509015
vt 0.552654027 0.621509015
vt 0.552654027 0.945056974
vt 0.351442009 0.945056974
vt 0.351442009 0.621509015
vt 0.552654027 0.621509015
vt 0.552654027 0.945056974
vt 0.351442009 0.945056974
vt 0.351442009 0.621509015
vt 0.552654027 0.621509015
vt 0.552654027 0.945056974
vt 0.351442009 0.945056974
vt 0.351442009 0.621509015
vt 0.552654027 0.621509015
vt 0.552654027 0.945056974
vt 0.351442009 0.945056974
vt 0.351442009 0.621509015
vt 0.552654027 0.621509015
vt 0.552654027 0.945056974
vt 0.351442009 0.945056974
vt 0.351442009 0.621509015
vt 0.552654027 0.621509015
vt 0.552654027 0.945056974
vt 0.351442009 0.945056974
vt 0.351442009 0.621509015
vt 0.552654027 0.621509015
vt 0.552654027 0.945056974
vt 0.351442009 0.945056974
vt 0.332540988 0.655345976
vt 0.332540988 0.954837977
vt 0.016578 0.954837977
vt 0.016578 0.655345976
vt 0.332540988 0.655345976
vt 0.332540988 0.954837977
vt 0.016578 0.954837977
vt 0.016578 0.655345976
vt 0.332540988 0.655345976
vt 0.332540988 0.954837977
vt 0.016578 0.954837977
vt 0.016578 0.655345976
vt 0.332540988 0.655345976
vt 0.332540988 0.954837977
vt 0.016578 0.954837977
vt 0.016578 0.655345976
vt 0.332540988 0.655345976
vt 0.332540988 0.954837977
vt 0.016578 0.954837977
vt 0.016578 0.655345976
vt 0.332540988 0.655345976
vt 0.332540988 0.954837977
vt 0.016578 0.954837977
vt 0.016578 0.655345976
vt 0.332540988 0.655345976
vt 0.332540988 0.954837977
vt 0.016578 0.954837977
vt 0.016578 0.655345976
vt 0.332540988 0.655345976
vt 0.332540988 0.954837977
vt 0.016578 0.954837977
vt 0.016578 0.655345976
vt 0.332540988 0.655345976
vt 0.332540988 0.954837977
vt 0.016578 0.954837977
vt 0.016578 0.655345976
vt 0.332540988 0.655345976
vt 0.332540988 0.954837977
vt 0.016578 0.954837977
vt 0.016578 0.655345976
vt 0.332540988 0.655345976
vt 0.332540988 0.954837977
vt 0.016578 0.954837977
vt 0.016578 0.655345976
vt 0.332540988 0.655345976
vt 0.332540988 0.954837977
vt 0.016578 0.954837977
vt 0.016578 0.655345976
vt 0.332540988 0.655345976
vt 0.332540988 0.954837977
vt 0.016578 0.954837977
vt 0.016578 0.655345976
vt 0.332540988 0.655345976
vt 0.332540988 0.954837977
vt 0.016578 0.954837977
vt 0.016578 0.655345976
vt 0.332540988 0.655345976
vt 0.332540988 0.954837977
vt 0.016578 0.954837977
vt 0.016578 0.655345976
vt 0.332540988 0.655345976
vt 0.332540988 0.954837977
vt 0.016578 0.954837977
vt 0.016578 0.655345976
vt 0.332540988 0.655345976
vt 0.332540988 0.954837977
vt 0.016578 0.954837977
vt 0.016578 0.655345976
vt 0.332540988 0.655345976
vt 0.332540988 0.954837977
vt 0.016578 0.954837977
vt 0.016578 0.655345976
vt 0.332540988 0.655345976
vt 0.332540988 0.954837977
vt 0.016578 0.954837977
vt 0.016578 0.655345976
vt 0.332540988 0.655345976
vt 0.332540988 0.954837977
vt 0.016578 0.954837977
vt 0.016578 0.655345976
vt 0.332540988 0.655345976
vt 0.332540988 0.954837977
vt 0.016578 0.954837977
vt 0.016578 0.655345976
vt 0.332540988 0.655345976
vt 0.332540988 0.954837977
vt 0.016578 0.954837977
vt 0.016578 0.655345976
vt 0.332540988 0.655345976
vt 0.332540988 0.954837977
vt 0.016578 0.954837977
vt 0.016578 0.655345976
vt 0.332540988 0.655345976
vt 0.332540988 0.954837977
vt 0.016578 0.954837977
vt 0.016578 0.655345976
vt 0.332540988 0.655345976
vt 0.332540988 0.954837977
vt 0.016578 0.954837977
vt 0.016578 0.655345976
vt 0.332540988 0.655345976
vt 0.332540988 0.954837977
vt 0.016578 0.954837977
vt 0.016578 0.655345976
vt 0.332540988 0.655345976
vt 0.332540988 0.954837977
vt 0.016578 0.954837977
vt 0.016578 0.655345976
vt 0.332540988 0.655345976
vt 0.332540988 0.954837977
vt 0.016578 0.954837977
vt 0.016578 0.655345976
vt 0.332540988 0.655345976
vt 0.332540988 0.954837977
vt 0.016578 0.954837977
vt 0.016578 0.655345976
vt 0.332540988 0.655345976
vt 0.332540988 0.954837977
vt 0.016578 0.954837977
vt 0.016578 0.655345976
vt 0.332540988 0.655345976
vt 0.332540988 0.954837977
vt 0.016578 0.954837977
vt 0.016578 0.655345976
vt 0.332540988 0.655345976
vt 0.332540988 0.954837977
vt 0.016578 0.954837977
vt 0.016578 0.655345976
vt 0.332540988 0.655345976
vt 0.332540988 0.954837977
vt 0.016578 0.954837977
vt 0.016578 0.655345976
vt 0.332540988 0.655345976
vt 0.332540988 0.954837977
vt 0.016578 0.954837977
vt 0.016578 0.655345976
vt 0.332540988 0.655345976
vt 0.332540988 0.954837977
vt 0.016578 0.954837977
vt 0.016578 0.655345976
vt 0.332540988 0.655345976
vt 0.332540988 0.954837977
vt 0.016578 0.954837977
vt 0.016578 0.655345976
vt 0.332540988 0.655345976
vt 0.332540988 0.954837977
vt 0.016578 0.954837977
vt 0.016578 0.655345976
vt 0.332540988 0.655345976
vt 0.332540988 0.954837977
vt 0.016578 0.954837977
vt 0.016578 0.655345976
vt 0.332540988 0.655345976
vt 0.332540988 0.954837977
vt 0.016578 0.954837977
vt 0.016578 0.655345976
vt 0.332540988 0.655345976
vt 0.332540988 0.954837977
vt 0.016578 0.954837977
vt 0.016578 0.655345976
vt 0.332540988 0.655345976
vt 0.332540988 0.954837977
vt 0.016578 0.954837977
vt 0.016578 0.655345976
vt 0.332540988 0.655345976
vt 0.332540988 0.954837977
vt 0.016578 0.954837977
vt 0.016578 0.655345976
vt 0.332540988 0.655345976
vt 0.332540988 0.954837977
vt 0.016578 0.954837977
vt 0.016578 0.655345976
vt 0.332540988 0.655345976
vt 0.332540988 0.954837977
vt 0.016578 0.954837977
vt 0.016578 0.655345976
vt 0.332540988 0.655345976
vt 0.332540988 0.954837977
vt 0.016578 0.954837977
vt 0.016578 0.655345976
vt 0.332540988 0.655345976
vt 0.332540988 0.954837977
vt 0.016578 0.954837977
vt 0.016578 0.655345976
vt 0.332540988 0.655345976
vt 0.332540988 0.954837977
vt 0.016578 0.954837977
vt 0.016578 0.655345976
vt 0.332540988 0.655345976
vt 0.332540988 0.954837977
vt 0.016578 0.954837977
vt 0.016578 0.655345976
vt 0.332540988 0.655345976
vt 0.332540988 0.954837977
vt 0.016578 0.954837977
vt 0.016578 0.655345976
f 1/1 2/2 3/3
f 4/4 2/2 1/1
f 5/5 4/4 1/1
f 6/6 2/2 4/4
f 7/7 2/2 6/6
f 8/8 4/4 5/5
f 9/9 4/4 8/8
f 6/6 4/4 9/9
f 5/5 10/10 8/8
f 8/8 10/10 11/11
f 12/12 8/8 11/11
f 9/9 8/8 12/12
f 9/9 13/13 14/14
f 12/12 13/13 9/9
f 9/9 14/14 6/6
f 6/6 14/14 15/15
f 6/6 15/15 7/7
f 7/7 15/15 16/16
f 17/17 18/18 19/19
f 20/20 18/18 17/17
f 21/21 20/20 17/17
f 22/22 18/18 20/20
f 23/23 18/18 22/22
f 24/24 20/20 21/21
f 25/25 20/20 24/24
f 22/22 20/20 25/25
f 21/21 26/26 24/24
f 24/24 26/26 27/27
f 28/28 24/24 27/27
f 25/25 24/24 28/28
f 25/25 29/29 30/30
f 28/28 29/29 25/25
f 25/25 30/30 22/22
f 22/22 30/30 31/31
f 22/22 31/31 23/23
f 23/23 31/31 32/32
f 33/33 34/34 35/35
f 36/36 34/34 33/33
f 37/37 36/36 33/33
f 38/38 34/34 36/36
f 39/39 34/34 38/38
f 40/40 36/36 37/37
f 41/41 36/36 40/40
f 38/38 36/36 41/41
f 37/37 42/42 40/40
f 40/40 42/42 43/43
f 44/44 40/40 43/43
f 41/41 40/40 44/44
f 41/41 45/45 46/46
f 44/44 45/45 41/41
f 41/41 46/46 38/38
f 38/38 46/46 47/47
f 38/38 47/47 39/39
f 39/39 47/47 48/48
f 49/49 50/50 51/51
f 52/52 50/50 49/49
f 53/53 52/52 49/49
f 54/54 50/50 52/52
f 55/55 50/50 54/54
f 56/56 52/52 53/53
f 57/57 52/52 56/56
f 54/54 52/52 57/57
f 53/53 58/58 56/56
f 56/56 58/58 59/59
f 60/60 56/56 59/59
f 57/57 56/56 60/60
f 57/57 61/61 62/62
f 60/60 61/61 57/57
f 57/57 62/62 54/54
f 54/54 62/62 63/63
f 54/54 63/63 55/55
f 55/55 63/63 64/64
f 65/65 66/66 67/67
f 68/68 66/66 65/65
f 69/69 68/68 65/65
f 70/70 66/66 68/68
f 71/71 66/66 70/70
f 72/72 68/68 69/69
f 73/73 68/68 72/72
f 70/70 68/68 73/73
f 69/69 74/74 72/72
f 72/72 74/74 75/75
f 76/76 72/72 75/75
f 73/73 72/72 76/76
f 73/73 77/77 78/78
f 76/76 77/77 73/73
f 73/73 78/78 70/70
f 70/70 78/78 79/79
f 70/70 79/79 71/71
f 71/71 79/79 80/80
f 81/81 82/82 83/83
f 84/84 82/82 81/81
f 85/85 84/84 81/81
f 86/86 82/82 84/84
f 87/87 82/82 86/86
f 88/88 84/84 85/85
f 89/89 84/84 88/88
f 86/86 84/84 89/89
f 85/85 90/90 88/88
f 88/88 90/90 91/91
f 92/92 88/88 91/91
f 89/89 88/88 92/92
f 89/89 93/93 94/94
f 92/92 93/93 89/89
f 89/89 94/94 86/86
f 86/86 94/94 95/95
f 86/86 95/95 87/87
f 87/87 95/95 96/96
f 97/97 98/98 99/99
f 100/100 98/98 97/97
f 101/101 100/100 97/97
f 102/102 98/98 100/100
f 103/103 98/98 102/102
f 104/104 100/100 101/101
f 105/105 100/100 104/104
f 102/102 100/100 105/105
f 101/101 106/106 104/104
f 104/104 106/106 107/107
f 108/108 104/104 107/107
f 105/105 104/104 108/108
f 105/105 109/109 110/110
f 108/108 109/109 105/105
f 105/105 110/110 102/102
f 102/102 110/110 111/111
f 102/102 111/111 103/103
f 103/103 111/111 112/112
f 113/113 114/114 115/115
f 116/116 114/114 113/113
f 117/117 116/116 113/113
f 118/118 114/114 116/116
f 119/119 114/114 118/118
f 120/120 116/116 117/117
f 121/121 116/116 120/120
f 118/118 116/116 121/121
f 117/117 122/122 120/120
f 120/120 122/122 123/123
f 124/124 120/120 123/123
f 121/121 120/120 124/124
f 121/121 125/125 126/126
f 124/124 125/125 121/121
f 121/121 126/126 118/118
f 118/118 126/126 127/127
f 118/118 127/127 119/119
f 119/119 127/127 128/128
f 129/129 130/130 131/131
f 132/132 130/130 129/129
f 133/133 132/132 129/129
f 134/134 130/130 132/132
f 135/135 130/130 134/134
f 136/136 132/132 133/133
f 137/137 132/132 136/136
f 134/134 132/132 137/137
f 133/133 138/138 136/136
f 136/136 138/138 139/139
f 140/140 136/136 139/139
f 137/137 136/136 140/140
f 137/137 141/141 142/142
f 140/140 141/141 137/137
f 137/137 142/142 134/134
f 134/134 142/142 143/143
f 134/134 143/143 135/135
f 135/135 143/143 144/144
f 145/145 146/146 147/147
f 148/148 146/146 145/145
f 149/149 148/148 145/145
f 150/150 146/146 148/148
f 151/151 146/146 150/150
f 152/152 148/148 149/149
f 153/153 148/148 152/152
f 150/150 148/148 153/153
f 149/149 154/154 152/152
f 152/152 154/154 155/155
f 156/156 152/152 155/155
f 153/153 152/152 156/156
f 153/153 157/157 158/158
f 156/156 157/157 153/153
f 153/153 158/158 150/150
f 150/150 158/158 159/159
f 150/150 159/159 151/151
f 151/151 159/159 160/160
f 161/161 162/162 163/163
f 164/164 162/162 161/161
f 165/165 164/164 161/161
f 166/166 162/162 164/164
f 167/167 162/162 166/166
f 168/168 164/164 165/165
f 169/169 164/164 168/168
f 166/166 164/164 169/169
f 165/165 170/170 168/168
f 168/168 170/170 171/171
f 172/172 168/168 171/171
f 169/169 168/168 172/172
f 169/169 173/173 174/174
f 172/172 173/173 169/169
f 169/169 174/174 166/166
f 166/166 174/174 175/175
f 166/166 175/175 167/167
f 167/167 175/175 176/176
f 177/177 178/178 179/179
f 177/177 179/179 180/180
f 181/181 182/182 183/183
f 181/181 183/183 184/184
f 185/185 186/186 187/187
f 185/185 187/187 188/188
f 189/189 190/190 191/191
f 189/189 191/191 192/192
f 193/193 194/194 195/195
f 193/193 195/195 196/196
f 197/197 198/198 199/199
f 197/197 199/199 200/200
f 201/201 202/202 203/203
f 201/201 203/203 204/204
f 205/205 206/206 207/207
f 205/205 207/207 208/208
f 209/209 210/210 211/211
f 209/209 211/211 212/212
f 213/213 214/214 215/215
f 213/213 215/215 216/216
f 217/217 218/218 219/219
f 217/217 219/219 220/220
f 221/221 222/222 223/223
f 221/221 223/223 224/224
f 225/225 226/226 227/227
f 225/225 227/227 228/228
f 229/229 230/230 231/231
f 229/229 231/231 232/232
f 233/233 234/234 235/235
f 233/233 235/235 236/236
f 237/237 238/238 239/239
f 237/237 239/239 240/240
f 241/241 242/242 243/243
f 241/241 243/243 244/244
f 245/245 246/246 247/247
f 245/245 247/247 248/248
f 249/249 250/250 251/251
f 249/249 251/251 252/252
f 253/253 254/254 255/255
f 253/253 255/255 256/256
f 257/257 258/258 259/259
f 257/257 259/259 260/260
f 261/261 262/262 263/263
f 261/261 263/263 264/264
f 265/265 266/266 267/267
f 265/265 267/267 268/268
f 269/269 270/270 271/271
f 269/269 271/271 272/272
f 273/273 274/274 275/275
f 273/273 275/275 276/276
f 277/277 278/278 279/279
f 277/277 279/279 280/280
f 281/281 282/282 283/283
f 281/281 283/283 284/284
f 285/285 286/286 287/287
f 285/285 287/287 288/288
f 289/289 290/290 291/291
f 289/289 291/291 292/292
f 293/293 294/294 295/295
f 293/293 295/295 296/296
f 297/297 298/298 299/299
f 297/297 299/299 300/300
f 301/301 302/302 303/303
f 301/301 303/303 304/304
f 305/305 306/306 307/307
f 305/305 307/307 308/308
f 309/309 310/310 311/311
f 309/309 311/311 312/312
f 313/313 314/314 315/315
f 313/313 315/315 316/316
f 317/317 318/318 319/319
f 317/317 319/319 320/320
f 321/321 322/322 323/323
f 321/321 323/323 324/324
f 325/325 326/326 327/327
f 325/325 327/327 328/328
f 329/329 330/330 331/331
f 329/329 331/331 332/332
f 333/333 334/334 335/335
f 333/333 335/335 336/336
f 337/337 338/338 339/339
f 337/337 339/339 340/340
f 341/341 342/342 343/343
f 341/341 343/343 344/344
f 345/345 346/346 347/347
f 345/345 347/347 348/348
f 349/349 350/350 351/351
f 349/349 351/351 352/352
f 353/353 354/354 355/355
f 353/353 355/355 356/356
f 357/357 358/358 359/359
f 357/357 359/359 360/360
f 361/361 362/362 363/363
f 361/361 363/363 364/364
f 365/365 366/366 367/367
f 365/365 367/367 368/368
f 369/369 370/370 371/371
f 369/369 371/371 372/372
f 373/373 374/374 375/375
f 373/373 375/375 376/376
f 377/377 378/378 379/379
f 377/377 379/379 380/380
f 381/381 382/382 383/383
f 381/381 383/383 384/384
f 385/385 386/386 387/387
f 385/385 387/387 388/388
f 389/389 390/390 391/391
f 389/389 391/391 392/392
f 393/393 394/394 395/395
f 393/393 395/395 396/396
f 397/397 398/398 399/399
f 397/397 399/399 400/400
f 401/401 402/402 403/403
f 401/401 403/403 404/404
f 405/405 406/406 407/407
f 405/405 407/407 408/408
f 409/409 410/410 411/411
f 409/409 411/411 412/412
f 413/413 414/414 415/415
f 413/413 415/415 416/416
f 417/417 418/418 419/419
f 417/417 419/419 420/420
f 421/421 422/422 423/423
f 421/421 423/423 424/424
f 425/425 426/426 427/427
f 425/425 427/427 428/428
f 429/429 430/430 431/431
f 429/429 431/431 432/432
f 433/433 434/434 435/435
f 433/433 435/435 436/436
f 437/437 438/438 439/439
f 437/437 439/439 440/440
f 441/441 442/442 443/443
f 441/441 443/443 444/444
f 445/445 446/446 447/447
f 445/445 447/447 448/448
f 449/449 450/450 451/451
f 449/449 451/451 452/452
f 453/453 454/454 455/455
f 453/453 455/455 456/456
f 457/457 458/458 459/459
f 457/457 459/459 460/460
f 461/461 462/462 463/463
f 461/461 463/463 464/464
f 465/465 466/466 467/467
f 465/465 467/467 468/468
f 469/469 470/470 471/471
f 469/469 471/471 472/472
f 473/473 474/474 475/475
f 473/473 475/475 476/476
f 477/477 478/478 479/479
f 477/477 479/479 480/480
f 481/481 482/482 483/483
f 481/481 483/483 484/484
f 485/485 486/486 487/487
f 485/485 487/487 488/488
f 489/489 490/490 491/491
f 489/489 491/491 492/492
f 493/493 494/494 495/495
f 493/493 495/495 496/496
f 497/497 498/498 499/499
f 497/497 499/499 500/500
f 501/501 502/502 503/503
f 501/501 503/503 504/504
f 505/505 506/506 507/507
f 505/505 507/507 508/508
f 509/509 510/510 511/511
f 509/509 511/511 512/512
f 513/513 514/514 515/515
f 513/513 515/515 516/516
f 517/517 518/518 519/519
f 517/517 519/519 520/520
f 521/521 522/522 523/523
f 521/521 523/523 524/524
f 525/525 526/526 527/527
f 525/525 527/527 528/528
f 529/529 530/530 531/531
f 529/529 531/531 532/532
f 533/533 534/534 535/535
f 533/533 535/535 536/536
f 537/537 538/538 539/539
f 537/537 539/539 540/540
f 541/541 542/542 543/543
f 541/541 543/543 544/544
f 545/545 546/546 547/547
f 545/545 547/547 548/548
f 549/549 550/550 551/551
f 549/549 551/551 552/552
f 553/553 554/554 555/555
f 553/553 555/555 556/556
f 557/557 558/558 559/559
f 557/557 559/559 560/560
f 561/561 562/562 563/563
f 561/561 563/563 564/564
f 565/565 566/566 567/567
f 565/565 567/567 568/568
f 569/569 570/570 571/571
f 569/569 571/571 572/572
f 573/573 574/574 575/575
f 573/573 575/575 576/576
f 577/577 578/578 579/579
f 577/577 579/579 580/580
f 581/581 582/582 583/583
f 581/581 583/583 584/584
f 585/585 586/586 587/587
f 585/585 587/587 588/588
f 589/589 590/590 591/591
f 589/589 591/591 592/592
f 593/593 594/594 595/595
f 593/593 595/595 596/596
f 597/597 598/598 599/599
f 597/597 599/599 600/600
f 601/601 602/602 603/603
f 601/601 603/603 604/604
f 605/605 606/606 607/607
f 605/605 607/607 608/608
f 609/609 610/610 611/611
f 609/609 611/611 612/612
f 613/613 614/614 615/615
f 613/613 615/615 616/616
f 617/617 618/618 619/619
f 617/617 619/619 620/620
f 621/621 622/622 623/623
f 621/621 623/623 624/624
f 625/625 626/626 627/627
f 625/625 627/627 628/628
f 629/629 630/630 631/631
f 629/629 631/631 632/632
f 633/633 634/634 635/635
f 633/633 635/635 636/636
f 637/637 638/638 639/639
f 637/637 639/639 640/640
f 641/641 642/642 643/643
f 641/641 643/643 644/644
f 645/645 646/646 647/647
f 645/645 647/647 648/648
