# Plante extraite de « Stylized Nature Pack Vol.1 »
v 6.352109909 -0.001164 0.667307019
v 7.429022789 0.829941988 0.835182011
v 7.429022789 -0.001164 0.667307019
v 6.352109909 0.829941988 0.835182011
v 6.702116012 0.002876 0.162143006
v 7.123331069 0.841642022 1.160998940
v 7.079471111 -0.005059 1.170745015
v 6.745975017 0.849577009 0.152394995
v 5.938875198 -0.001164 1.132897019
v 6.706756115 0.829941988 0.359411001
v 6.570825099 -0.001164 0.260899990
v 6.074806213 0.829941988 1.231408953
v 5.735221862 0.002876 0.553050994
v 6.791192054 0.841642022 0.798129975
v 6.773345947 -0.005059 0.839365005
v 5.753067016 0.849577009 0.511816024
v 6.360257148 -0.001164 1.777325987
v 6.616814136 0.829941988 0.718034029
v 6.449514865 -0.001164 0.704119026
v 6.527554035 0.829941988 1.791239976
v 5.885839939 0.002876 1.386654019
v 6.916172027 0.841642022 1.049680948
v 6.922251224 -0.005059 1.094195008
v 5.879762172 0.849577009 1.342136979
v 7.163356781 -0.00126 1.857172012
v 6.874848842 0.897850990 0.713912010
v 6.707705020 -0.00126 0.784941971
v 7.330502986 0.897850990 1.786141991
v 6.512300014 0.003111999 1.722427964
v 7.328588008 0.910508990 0.880415022
v 7.356853008 -0.005475 0.919961988
v 6.484035015 0.919094026 1.682880997
v 7.915918827 -0.001026 1.411419987
v 7.377078056 0.730131983 0.618301987
v 7.269158840 -0.001026 0.719121992
v 8.023838043 0.730131983 1.310600042
v 7.380969047 0.002529999 1.489802956
v 7.770119190 0.740423977 0.619141995
v 7.802725791 -0.004452 0.641484022
v 7.348361969 0.747404992 1.46746099
v 7.913158893 -0.000864 0.635501027
v 7.144070148 0.615554988 0.386545985
v 7.124427795 -0.000864 0.509496986
v 7.932800769 0.615554988 0.512549996
v 7.597709178 0.002134 0.964532017
v 7.406082153 0.624230980 0.183686003
v 7.439344883 -0.003754 0.181678995
v 7.564445018 0.630115985 0.966539025
v 7.649514198 -0.000864 0.198431998
v 6.855093956 0.615554988 0.348008006
v 6.896706104 -0.000864 0.465359002
v 7.607904911 0.615554988 0.081078998
v 7.530056953 0.002134 0.638316988
v 6.988028049 0.624230980 0.044477999
v 7.016273021 -0.003754 0.026792999
v 7.501812934 0.630118012 0.656002998
v 6.771475791 -0.000759 -0.230956
v 6.477240085 0.541202008 0.416013002
v 6.582680225 -0.000759 0.445445001
v 6.666035175 0.541202008 -0.26038799
v 7.027407169 0.001876 0.077440001
v 6.326188087 0.548831999 0.166889995
v 6.327754020 -0.003299 0.137634992
v 7.025839805 0.554006993 0.106697000
v 4.791241169 -0.001164 1.138820052
v 5.546670913 0.829941988 0.353166997
v 5.409182071 -0.001164 0.256837993
v 4.928730011 0.829941988 1.235146999
v 4.578352928 0.002876 0.562301993
v 5.638102054 0.841642022 0.790482997
v 5.620919227 -0.005059 0.831996023
v 4.595536232 0.849577009 0.520789027
v 4.935437202 -0.001164 1.744415044
v 4.742578029 0.829941988 0.671694994
v 4.583898067 -0.001164 0.726495981
v 5.094114780 0.829941988 1.689615011
v 4.343691825 0.002876 1.578484058
v 5.150331974 0.841642022 0.854283988
v 5.173862934 -0.005059 0.892560005
v 4.320159912 0.849577009 1.540207982
v 5.705008983 -0.001166 1.769086957
v 4.984673976 0.829941988 0.951137006
v 4.877283096 -0.001166 1.080168962
v 5.812403202 0.829941988 1.640054941
v 5.112829208 0.002876 1.933457016
v 5.428063869 0.841642022 0.896266996
v 5.468010902 -0.005059 0.916831970
v 5.072884082 0.849577009 1.912893056
v 6.231228828 -0.00126 1.157170057
v 5.129361152 0.897850990 0.737442970
v 5.091625213 -0.00126 0.915091991
v 6.268964767 0.897850990 0.979523003
v 5.747292041 0.003109999 1.613064050
v 5.526084899 0.910507023 0.461376994
v 5.574694156 -0.005475 0.460920989
v 5.698685169 0.919094026 1.613517999
v 6.297986984 -0.001026 0.285055011
v 5.339241027 0.730131983 0.271261990
v 5.359888076 -0.001026 0.417497992
v 6.277341842 0.730131983 0.138817995
v 6.055223941 0.002529999 0.768148005
v 5.565458774 0.740423977 -0.050153
v 5.602467060 -0.004452 -0.064038
v 6.018217086 0.747404992 0.782033979
v 5.660934925 -0.000864 -0.157914
v 5.015735149 0.615553021 0.329109996
v 5.105160236 -0.000864 0.415746986
v 5.571508884 0.615553021 -0.24455
v 5.749398231 0.002131999 0.289236992
v 4.999937057 0.624230980 -0.001879
v 5.017378807 -0.003754 -0.030271
v 5.731956005 0.630115985 0.317629993
v 5.151698112 -0.000864 -0.19278499
v 4.818356990 0.615553021 0.543664991
v 4.938341140 -0.000864 0.576924026
v 5.031711101 0.615553021 -0.226044
v 5.443414211 0.002134 0.157458007
v 4.646046161 0.624230980 0.260623991
v 4.647767067 -0.003754 0.227344006
v 5.441690921 0.630115985 0.190738007
v 4.296206951 -0.000759 0.279933005
v 4.657235145 0.541202008 0.892145991
v 4.741839885 -0.000759 0.822678983
v 4.211602211 0.541202008 0.349400013
v 4.695637226 0.001874 0.247289001
v 4.366530895 0.548831999 0.872906982
v 4.343470096 -0.003299 0.854837000
v 4.718698024 0.554006993 0.265359014
v 6.008364200 -0.001164 0.284754991
v 6.288904190 0.829943001 -0.76844001
v 6.121964931 -0.001164 -0.78614902
v 6.175302028 0.829943001 0.302464991
v 5.542940139 0.002876 -0.116587
v 6.580657005 0.841642022 -0.43008199
v 6.585721969 -0.005059 -0.38544101
v 5.537872791 0.849577009 -0.16123
v 6.427764892 -0.001164 0.744799017
v 5.739597797 0.829943001 -0.100392
v 5.627295970 -0.001164 0.024390000
v 6.540067195 0.829943001 0.620019018
v 5.829671859 0.002876 0.886148989
v 6.184775829 0.841642022 -0.13807601
v 6.223896980 -0.005059 -0.11598
v 5.790548801 0.849577009 0.864054024
v 7.113049984 -0.001164 0.393750011
v 6.086730003 0.829941988 0.026879999
v 6.055245876 -0.001164 0.191774994
v 7.144534111 0.829941988 0.228854000
v 6.674511909 0.002876 0.824306011
v 6.448104858 0.841642022 -0.235824
v 6.493013858 -0.005059 -0.23717199
v 6.629601955 0.849577009 0.825655996
v 7.277166843 -0.00126 -0.396449
v 6.109851837 0.897850990 -0.230152
v 6.162854194 -0.00126 -0.056445
v 7.224164962 0.897850990 -0.57015502
v 7.074495792 0.003111999 0.236763998
v 6.323291778 0.910508990 -0.66379499
v 6.365599155 -0.005475 -0.68773001
v 7.032186985 0.919094026 0.260699003
v 6.913290023 -0.001026 -1.19183302
v 6.067756176 0.730131983 -0.739663
v 6.156629085 -0.001026 -0.62171102
v 6.824417114 0.730131983 -1.30978405
v 6.934803962 0.002529999 -0.65159899
v 6.110051155 0.740423977 -1.13042295
v 6.135707855 -0.004452 -1.16049194
v 6.909145832 0.747404992 -0.62153
v 6.141408920 -0.000864 -1.27093804
v 5.812714099 0.615554988 -0.53240299
v 5.932906150 -0.000864 -0.499901
v 6.021215915 0.615554988 -1.30343997
v 6.435327053 0.002134 -0.92254001
v 5.638624191 0.624231994 -0.81435299
v 5.640137195 -0.003752 -0.847642
v 6.433814048 0.630118012 -0.88925099
v 5.678966999 -0.000864 -1.05487096
v 5.743906974 0.615554988 -0.24910501
v 5.864993095 -0.000864 -0.27810499
v 5.557878971 0.615554988 -1.02587104
v 6.103796005 0.002134 -0.88967699
v 5.456092834 0.624230980 -0.41331699
v 5.441484928 -0.003752 -0.44326901
v 6.118402957 0.630118012 -0.85972601
v 5.159349918 -0.000759 -0.227028
v 5.771671772 0.541202008 0.133815005
v 5.812061786 -0.000759 0.032067000
v 5.118960857 0.541202008 -0.12528101
v 5.493025779 0.001876 -0.448998
v 5.508006095 0.548831999 0.257746011
v 5.479076862 -0.003299 0.253100991
v 5.521953105 0.554006993 -0.444354
v 6.114315986 -0.001164 2.412440061
v 5.723022937 0.829941988 1.395182013
v 5.577493190 -0.001164 1.478865981
v 6.259847164 0.829941988 2.328758001
v 5.501917839 0.002876 2.360836982
v 6.157857894 0.841642022 1.497773051
v 6.188169956 -0.005059 1.530936002
v 5.471604824 0.849577009 2.327675104
v 6.723927974 -0.001164 2.538585901
v 5.670618057 0.829941988 2.258479118
v 5.652976989 -0.001164 2.425425052
v 6.741567134 0.829941988 2.371639013
v 6.322775840 0.002876 3.004174947
v 6.008852005 0.841642022 1.966586947
v 6.053493976 -0.005059 1.961503028
v 6.278134822 0.849577009 3.009259939
v 7.072529792 -0.001166 1.852053046
v 6.026340961 0.829941988 2.157684087
v 6.097672939 -0.001166 2.309648990
v 7.001197814 0.829941988 1.700086951
v 6.970345974 0.002876 2.458066940
v 6.164619922 0.841642022 1.732849955
v 6.200181007 -0.005059 1.705389976
v 6.934783935 0.849577009 2.485527038
v 6.741415023 -0.00126 1.116044044
v 5.894142150 0.897850990 1.936046004
v 6.039035797 -0.00126 2.045536994
v 6.596519947 0.897850990 1.006553053
v 6.949148178 0.003111999 1.747614026
v 5.812301158 0.910508990 1.459699988
v 5.832496166 -0.005475 1.415485024
v 6.928954124 0.919094026 1.791828036
v 5.979856014 -0.001026 0.685847997
v 5.560904979 0.730131983 1.548323988
v 5.702102184 -0.001026 1.591622948
v 5.838657856 0.730131983 0.642551004
v 6.314467907 0.002529999 1.110522031
v 5.365707874 0.740423977 1.207178950
v 5.368823051 -0.004452 1.167775988
v 6.311355114 0.747404992 1.149927020
v 5.308587074 -0.000864 1.075024008
v 5.476147174 0.615554988 1.865844965
v 5.592525005 -0.000864 1.821585059
v 5.192211151 0.615554988 1.119284987
v 5.751069068 0.002134 1.184471964
v 5.169680118 0.624230980 1.739830970
v 5.151357173 -0.003754 1.711995959
v 5.769392013 0.630115985 1.212306022
v 5.061113834 -0.000864 1.521448016
v 5.586788177 0.615554988 2.135567903
v 5.667778015 -0.000864 2.040998935
v 4.980123996 0.615554988 1.616019010
v 5.501997947 0.002134 1.405730009
v 5.257390976 0.624230980 2.171633958
v 5.227981090 -0.003754 2.155965089
v 5.531410217 0.630115985 1.421398997
v 5.126565933 -0.000759 2.496661901
v 5.834095954 0.541202008 2.429229974
v 5.807047843 -0.000759 2.323154926
v 5.153612136 0.541202008 2.602739095
v 5.266337871 0.001876 2.121064901
v 5.693428039 0.548831999 2.684360981
v 5.667284011 -0.003299 2.697587013
v 5.292480945 0.554006993 2.107840061
v 7.817417144 -0.001051 0.105999998
v 6.834204196 0.748703002 0.099886000
v 6.856598854 -0.001051 0.249662995
v 7.795022010 0.748703002 -0.043777
v 7.572533130 0.002594 0.603398025
v 7.063477039 0.759257972 -0.23158699
v 7.101307869 -0.004564 -0.246135
v 7.534702777 0.766417026 0.617945015
v 8.123993873 -0.001051 -0.36452499
v 7.542077064 0.748703002 0.428014010
v 7.676496982 -0.001051 0.497772008
v 7.989573955 0.748703002 -0.434282
v 8.383045196 0.002595 0.125643998
v 7.408217907 0.759257972 0.047853998
v 7.418638229 -0.004565 0.008685000
v 8.372623443 0.766417026 0.164813995
v 7.662068843 -0.001051 -0.883268
v 7.574482917 0.748703002 0.096054002
v 7.725599765 -0.001051 0.086150996
v 7.510951042 0.748703002 -0.87336498
v 8.137457847 0.002594 -0.59799999
v 7.263153076 0.759257972 -0.159905
v 7.251791954 -0.004565 -0.19881099
v 8.148820877 0.766417026 -0.55909401
v 6.934893131 -0.001138 -0.84737003
v 7.344813823 0.809966027 0.134154006
v 7.484464168 -0.001138 0.048484999
v 6.795241832 0.809966027 -0.76169902
v 7.533740997 0.002807 -0.81400502
v 6.917776107 0.821382999 0.046130999
v 6.887281894 -0.004938 0.014616998
v 7.564233779 0.829128027 -0.78249198
v 6.322926044 -0.000925 -0.34927899
v 6.909482002 0.658662974 0.286455988
v 6.992317199 -0.000925 0.182107001
v 6.240090847 0.658662974 -0.244931
v 6.789750099 0.002282999 -0.49057499
v 6.558701038 0.667948007 0.338138997
v 6.526627063 -0.004017 0.322555989
v 6.821822166 0.674246013 -0.47499299
v 6.428897857 -0.000781 0.342624992
v 7.148285865 0.555302023 0.462143003
v 7.149408817 -0.000781 0.349826008
v 6.427775859 0.555302023 0.454941004
v 6.666447162 0.001924 0.006984000
v 6.941583156 0.563127994 0.678088009
v 6.912174224 -0.003386 0.684316992
v 6.695857048 0.568437993 0.000755
v 6.722424984 -0.000781 0.697405993
v 7.411251068 0.555302023 0.457976013
v 7.358470916 -0.000781 0.358826994
v 6.775206089 0.555302023 0.796557009
v 6.770324230 0.001924 0.289005994
v 7.333139896 0.563127994 0.746519029
v 7.310298919 -0.003386 0.766067028
v 6.793162822 0.568437993 0.269457995
v 7.563089847 -0.000685 0.963371992
v 7.739297866 0.488227009 0.346895992
v 7.641300201 -0.000685 0.334704011
v 7.661089897 0.488227009 0.975564003
v 7.293609142 0.001691 0.722364008
v 7.907301902 0.495110005 0.549013018
v 7.909805774 -0.002976 0.575323998
v 7.291104793 0.499778002 0.696052014
vt 0.562951028 0.331135988
vt 0.259761005 0.569848001
vt 0.259761005 0.331135988
vt 0.562951028 0.569848001
vt 0.562951028 0.331135988
vt 0.259761005 0.569848001
vt 0.259761005 0.331135988
vt 0.562951028 0.569848001
vt 0.562951028 0.331135988
vt 0.259761005 0.569848001
vt 0.259761005 0.331135988
vt 0.562951028 0.569848001
vt 0.562951028 0.331135988
vt 0.259761005 0.569848001
vt 0.259761005 0.331135988
vt 0.562951028 0.569848001
vt 0.562951028 0.331135988
vt 0.259761005 0.569848001
vt 0.259761005 0.331135988
vt 0.562951028 0.569848001
vt 0.562951028 0.331135988
vt 0.259761005 0.569848001
vt 0.259761005 0.331135988
vt 0.562951028 0.569848001
vt 0.562951028 0.331135988
vt 0.259761005 0.569848001
vt 0.259761005 0.331135988
vt 0.562951028 0.569848001
vt 0.562951028 0.331135988
vt 0.259761005 0.569848001
vt 0.259761005 0.331135988
vt 0.562951028 0.569848001
vt 0.562951028 0.331135988
vt 0.259761005 0.569848001
vt 0.259761005 0.331135988
vt 0.562951028 0.569848001
vt 0.562951028 0.331135988
vt 0.259761005 0.569848001
vt 0.259761005 0.331135988
vt 0.562951028 0.569848001
vt 0.562951028 0.331135988
vt 0.259761005 0.569848001
vt 0.259761005 0.331135988
vt 0.562951028 0.569848001
vt 0.562951028 0.331135988
vt 0.259761005 0.569848001
vt 0.259761005 0.331135988
vt 0.562951028 0.569848001
vt 0.562951028 0.331135988
vt 0.259761005 0.569848001
vt 0.259761005 0.331135988
vt 0.562951028 0.569848001
vt 0.562951028 0.331135988
vt 0.259761005 0.569848001
vt 0.259761005 0.331135988
vt 0.562951028 0.569848001
vt 0.562951028 0.331135988
vt 0.259761005 0.569848001
vt 0.259761005 0.331135988
vt 0.562951028 0.569848001
vt 0.562951028 0.331135988
vt 0.259761005 0.569848001
vt 0.259761005 0.331135988
vt 0.562951028 0.569848001
vt 0.562951028 0.331135988
vt 0.259761005 0.569848001
vt 0.259761005 0.331135988
vt 0.562951028 0.569848001
vt 0.562951028 0.331135988
vt 0.259761005 0.569848001
vt 0.259761005 0.331135988
vt 0.562951028 0.569848001
vt 0.562951028 0.331135988
vt 0.259761005 0.569848001
vt 0.259761005 0.331135988
vt 0.562951028 0.569848001
vt 0.562951028 0.331135988
vt 0.259761005 0.569848001
vt 0.259761005 0.331135988
vt 0.562951028 0.569848001
vt 0.562951028 0.331135988
vt 0.259761005 0.569848001
vt 0.259761005 0.331135988
vt 0.562951028 0.569848001
vt 0.562951028 0.331135988
vt 0.259761005 0.569848001
vt 0.259761005 0.331135988
vt 0.562951028 0.569848001
vt 0.562951028 0.331135988
vt 0.259761005 0.569848001
vt 0.259761005 0.331135988
vt 0.562951028 0.569848001
vt 0.562951028 0.331135988
vt 0.259761005 0.569848001
vt 0.259761005 0.331135988
vt 0.562951028 0.569848001
vt 0.562951028 0.331135988
vt 0.259761005 0.569848001
vt 0.259761005 0.331135988
vt 0.562951028 0.569848001
vt 0.562951028 0.331135988
vt 0.259761005 0.569848001
vt 0.259761005 0.331135988
vt 0.562951028 0.569848001
vt 0.562951028 0.331135988
vt 0.259761005 0.569848001
vt 0.259761005 0.331135988
vt 0.562951028 0.569848001
vt 0.562951028 0.331135988
vt 0.259761005 0.569848001
vt 0.259761005 0.331135988
vt 0.562951028 0.569848001
vt 0.562951028 0.331135988
vt 0.259761005 0.569848001
vt 0.259761005 0.331135988
vt 0.562951028 0.569848001
vt 0.562951028 0.331135988
vt 0.259761005 0.569848001
vt 0.259761005 0.331135988
vt 0.562951028 0.569848001
vt 0.562951028 0.331135988
vt 0.259761005 0.569848001
vt 0.259761005 0.331135988
vt 0.562951028 0.569848001
vt 0.562951028 0.331135988
vt 0.259761005 0.569848001
vt 0.259761005 0.331135988
vt 0.562951028 0.569848001
vt 0.562951028 0.331135988
vt 0.259761005 0.569848001
vt 0.259761005 0.331135988
vt 0.562951028 0.569848001
vt 0.562951028 0.331135988
vt 0.259761005 0.569848001
vt 0.259761005 0.331135988
vt 0.562951028 0.569848001
vt 0.562951028 0.331135988
vt 0.259761005 0.569848001
vt 0.259761005 0.331135988
vt 0.562951028 0.569848001
vt 0.562951028 0.331135988
vt 0.259761005 0.569848001
vt 0.259761005 0.331135988
vt 0.562951028 0.569848001
vt 0.562951028 0.331135988
vt 0.259761005 0.569848001
vt 0.259761005 0.331135988
vt 0.562951028 0.569848001
vt 0.562951028 0.331135988
vt 0.259761005 0.569848001
vt 0.259761005 0.331135988
vt 0.562951028 0.569848001
vt 0.562951028 0.331135988
vt 0.259761005 0.569848001
vt 0.259761005 0.331135988
vt 0.562951028 0.569848001
vt 0.562951028 0.331135988
vt 0.259761005 0.569848001
vt 0.259761005 0.331135988
vt 0.562951028 0.569848001
vt 0.562951028 0.331135988
vt 0.259761005 0.569848001
vt 0.259761005 0.331135988
vt 0.562951028 0.569848001
vt 0.562951028 0.331135988
vt 0.259761005 0.569848001
vt 0.259761005 0.331135988
vt 0.562951028 0.569848001
vt 0.562951028 0.331135988
vt 0.259761005 0.569848001
vt 0.259761005 0.331135988
vt 0.562951028 0.569848001
vt 0.562951028 0.331135988
vt 0.259761005 0.569848001
vt 0.259761005 0.331135988
vt 0.562951028 0.569848001
vt 0.562951028 0.331135988
vt 0.259761005 0.569848001
vt 0.259761005 0.331135988
vt 0.562951028 0.569848001
vt 0.562951028 0.331135988
vt 0.259761005 0.569848001
vt 0.259761005 0.331135988
vt 0.562951028 0.569848001
vt 0.562951028 0.331135988
vt 0.259761005 0.569848001
vt 0.259761005 0.331135988
vt 0.562951028 0.569848001
vt 0.562951028 0.331135988
vt 0.259761005 0.569848001
vt 0.259761005 0.331135988
vt 0.562951028 0.569848001
vt 0.562951028 0.331135988
vt 0.259761005 0.569848001
vt 0.259761005 0.331135988
vt 0.562951028 0.569848001
vt 0.562951028 0.331135988
vt 0.259761005 0.569848001
vt 0.259761005 0.331135988
vt 0.562951028 0.569848001
vt 0.562951028 0.331135988
vt 0.259761005 0.569848001
vt 0.259761005 0.331135988
vt 0.562951028 0.569848001
vt 0.562951028 0.331135988
vt 0.259761005 0.569848001
vt 0.259761005 0.331135988
vt 0.562951028 0.569848001
vt 0.562951028 0.331135988
vt 0.259761005 0.569848001
vt 0.259761005 0.331135988
vt 0.562951028 0.569848001
vt 0.562951028 0.331135988
vt 0.259761005 0.569848001
vt 0.259761005 0.331135988
vt 0.562951028 0.569848001
vt 0.562951028 0.331135988
vt 0.259761005 0.569848001
vt 0.259761005 0.331135988
vt 0.562951028 0.569848001
vt 0.562951028 0.331135988
vt 0.259761005 0.569848001
vt 0.259761005 0.331135988
vt 0.562951028 0.569848001
vt 0.562951028 0.331135988
vt 0.259761005 0.569848001
vt 0.259761005 0.331135988
vt 0.562951028 0.569848001
vt 0.562951028 0.331135988
vt 0.259761005 0.569848001
vt 0.259761005 0.331135988
vt 0.562951028 0.569848001
vt 0.562951028 0.331135988
vt 0.259761005 0.569848001
vt 0.259761005 0.331135988
vt 0.562951028 0.569848001
vt 0.562951028 0.331135988
vt 0.259761005 0.569848001
vt 0.259761005 0.331135988
vt 0.562951028 0.569848001
vt 0.562951028 0.331135988
vt 0.259761005 0.569848001
vt 0.259761005 0.331135988
vt 0.562951028 0.569848001
vt 0.562951028 0.331135988
vt 0.259761005 0.569848001
vt 0.259761005 0.331135988
vt 0.562951028 0.569848001
vt 0.562951028 0.331135988
vt 0.259761005 0.569848001
vt 0.259761005 0.331135988
vt 0.562951028 0.569848001
vt 0.562951028 0.331135988
vt 0.259761005 0.569848001
vt 0.259761005 0.331135988
vt 0.562951028 0.569848001
vt 0.562951028 0.331135988
vt 0.259761005 0.569848001
vt 0.259761005 0.331135988
vt 0.562951028 0.569848001
vt 0.562951028 0.331135988
vt 0.259761005 0.569848001
vt 0.259761005 0.331135988
vt 0.562951028 0.569848001
vt 0.562951028 0.331135988
vt 0.259761005 0.569848001
vt 0.259761005 0.331135988
vt 0.562951028 0.569848001
vt 0.562951028 0.331135988
vt 0.259761005 0.569848001
vt 0.259761005 0.331135988
vt 0.562951028 0.569848001
vt 0.562951028 0.331135988
vt 0.259761005 0.569848001
vt 0.259761005 0.331135988
vt 0.562951028 0.569848001
vt 0.562951028 0.331135988
vt 0.259761005 0.569848001
vt 0.259761005 0.331135988
vt 0.562951028 0.569848001
vt 0.562951028 0.331135988
vt 0.259761005 0.569848001
vt 0.259761005 0.331135988
vt 0.562951028 0.569848001
vt 0.562951028 0.331135988
vt 0.259761005 0.569848001
vt 0.259761005 0.331135988
vt 0.562951028 0.569848001
vt 0.562951028 0.331135988
vt 0.259761005 0.569848001
vt 0.259761005 0.331135988
vt 0.562951028 0.569848001
vt 0.562951028 0.331135988
vt 0.259761005 0.569848001
vt 0.259761005 0.331135988
vt 0.562951028 0.569848001
vt 0.562951028 0.331135988
vt 0.259761005 0.569848001
vt 0.259761005 0.331135988
vt 0.562951028 0.569848001
vt 0.562951028 0.331135988
vt 0.259761005 0.569848001
vt 0.259761005 0.331135988
vt 0.562951028 0.569848001
vt 0.562951028 0.331135988
vt 0.259761005 0.569848001
vt 0.259761005 0.331135988
vt 0.562951028 0.569848001
vt 0.562951028 0.331135988
vt 0.259761005 0.569848001
vt 0.259761005 0.331135988
vt 0.562951028 0.569848001
vt 0.562951028 0.331135988
vt 0.259761005 0.569848001
vt 0.259761005 0.331135988
vt 0.562951028 0.569848001
vt 0.562951028 0.331135988
vt 0.259761005 0.569848001
vt 0.259761005 0.331135988
vt 0.562951028 0.569848001
f 1/1 2/2 3/3
f 4/4 2/2 1/1
f 5/5 6/6 7/7
f 8/8 6/6 5/5
f 9/9 10/10 11/11
f 12/12 10/10 9/9
f 13/13 14/14 15/15
f 16/16 14/14 13/13
f 17/17 18/18 19/19
f 20/20 18/18 17/17
f 21/21 22/22 23/23
f 24/24 22/22 21/21
f 25/25 26/26 27/27
f 28/28 26/26 25/25
f 29/29 30/30 31/31
f 32/32 30/30 29/29
f 33/33 34/34 35/35
f 36/36 34/34 33/33
f 37/37 38/38 39/39
f 40/40 38/38 37/37
f 41/41 42/42 43/43
f 44/44 42/42 41/41
f 45/45 46/46 47/47
f 48/48 46/46 45/45
f 49/49 50/50 51/51
f 52/52 50/50 49/49
f 53/53 54/54 55/55
f 56/56 54/54 53/53
f 57/57 58/58 59/59
f 60/60 58/58 57/57
f 61/61 62/62 63/63
f 64/64 62/62 61/61
f 65/65 66/66 67/67
f 68/68 66/66 65/65
f 69/69 70/70 71/71
f 72/72 70/70 69/69
f 73/73 74/74 75/75
f 76/76 74/74 73/73
f 77/77 78/78 79/79
f 80/80 78/78 77/77
f 81/81 82/82 83/83
f 84/84 82/82 81/81
f 85/85 86/86 87/87
f 88/88 86/86 85/85
f 89/89 90/90 91/91
f 92/92 90/90 89/89
f 93/93 94/94 95/95
f 96/96 94/94 93/93
f 97/97 98/98 99/99
f 100/100 98/98 97/97
f 101/101 102/102 103/103
f 104/104 102/102 101/101
f 105/105 106/106 107/107
f 108/108 106/106 105/105
f 109/109 110/110 111/111
f 112/112 110/110 109/109
f 113/113 114/114 115/115
f 116/116 114/114 113/113
f 117/117 118/118 119/119
f 120/120 118/118 117/117
f 121/121 122/122 123/123
f 124/124 122/122 121/121
f 125/125 126/126 127/127
f 128/128 126/126 125/125
f 129/129 130/130 131/131
f 132/132 130/130 129/129
f 133/133 134/134 135/135
f 136/136 134/134 133/133
f 137/137 138/138 139/139
f 140/140 138/138 137/137
f 141/141 142/142 143/143
f 144/144 142/142 141/141
f 145/145 146/146 147/147
f 148/148 146/146 145/145
f 149/149 150/150 151/151
f 152/152 150/150 149/149
f 153/153 154/154 155/155
f 156/156 154/154 153/153
f 157/157 158/158 159/159
f 160/160 158/158 157/157
f 161/161 162/162 163/163
f 164/164 162/162 161/161
f 165/165 166/166 167/167
f 168/168 166/166 165/165
f 169/169 170/170 171/171
f 172/172 170/170 169/169
f 173/173 174/174 175/175
f 176/176 174/174 173/173
f 177/177 178/178 179/179
f 180/180 178/178 177/177
f 181/181 182/182 183/183
f 184/184 182/182 181/181
f 185/185 186/186 187/187
f 188/188 186/186 185/185
f 189/189 190/190 191/191
f 192/192 190/190 189/189
f 193/193 194/194 195/195
f 196/196 194/194 193/193
f 197/197 198/198 199/199
f 200/200 198/198 197/197
f 201/201 202/202 203/203
f 204/204 202/202 201/201
f 205/205 206/206 207/207
f 208/208 206/206 205/205
f 209/209 210/210 211/211
f 212/212 210/210 209/209
f 213/213 214/214 215/215
f 216/216 214/214 213/213
f 217/217 218/218 219/219
f 220/220 218/218 217/217
f 221/221 222/222 223/223
f 224/224 222/222 221/221
f 225/225 226/226 227/227
f 228/228 226/226 225/225
f 229/229 230/230 231/231
f 232/232 230/230 229/229
f 233/233 234/234 235/235
f 236/236 234/234 233/233
f 237/237 238/238 239/239
f 240/240 238/238 237/237
f 241/241 242/242 243/243
f 244/244 242/242 241/241
f 245/245 246/246 247/247
f 248/248 246/246 245/245
f 249/249 250/250 251/251
f 252/252 250/250 249/249
f 253/253 254/254 255/255
f 256/256 254/254 253/253
f 257/257 258/258 259/259
f 260/260 258/258 257/257
f 261/261 262/262 263/263
f 264/264 262/262 261/261
f 265/265 266/266 267/267
f 268/268 266/266 265/265
f 269/269 270/270 271/271
f 272/272 270/270 269/269
f 273/273 274/274 275/275
f 276/276 274/274 273/273
f 277/277 278/278 279/279
f 280/280 278/278 277/277
f 281/281 282/282 283/283
f 284/284 282/282 281/281
f 285/285 286/286 287/287
f 288/288 286/286 285/285
f 289/289 290/290 291/291
f 292/292 290/290 289/289
f 293/293 294/294 295/295
f 296/296 294/294 293/293
f 297/297 298/298 299/299
f 300/300 298/298 297/297
f 301/301 302/302 303/303
f 304/304 302/302 301/301
f 305/305 306/306 307/307
f 308/308 306/306 305/305
f 309/309 310/310 311/311
f 312/312 310/310 309/309
f 313/313 314/314 315/315
f 316/316 314/314 313/313
f 317/317 318/318 319/319
f 320/320 318/318 317/317
